<svg width="193" height="30" viewBox="0 0 193 30" fill="none" xmlns="http://www.w3.org/2000/svg">
<rect x="0.5" y="0.5" width="192" height="29" rx="14.5" stroke="#2C2B2B" stroke-opacity="0.1"/>
<mask id="mask0_257_1220" style="mask-type:alpha" maskUnits="userSpaceOnUse" x="12" y="7" width="16" height="16">
<rect x="12" y="7" width="16" height="16" fill="#D9D9D9"/>
</mask>
<g mask="url(#mask0_257_1220)">
<path d="M19.9998 14.9999C20.3665 14.9999 20.6804 14.8694 20.9415 14.6083C21.2026 14.3471 21.3332 14.0333 21.3332 13.6666C21.3332 13.2999 21.2026 12.986 20.9415 12.7249C20.6804 12.4638 20.3665 12.3333 19.9998 12.3333C19.6332 12.3333 19.3193 12.4638 19.0582 12.7249C18.7971 12.986 18.6665 13.2999 18.6665 13.6666C18.6665 14.0333 18.7971 14.3471 19.0582 14.6083C19.3193 14.8694 19.6332 14.9999 19.9998 14.9999ZM19.9998 21.6666C18.2109 20.1444 16.8748 18.7305 15.9915 17.4249C15.1082 16.1194 14.6665 14.911 14.6665 13.7999C14.6665 12.1333 15.2026 10.8055 16.2748 9.81659C17.3471 8.8277 18.5887 8.33325 19.9998 8.33325C21.4109 8.33325 22.6526 8.8277 23.7248 9.81659C24.7971 10.8055 25.3332 12.1333 25.3332 13.7999C25.3332 14.911 24.8915 16.1194 24.0082 17.4249C23.1248 18.7305 21.7887 20.1444 19.9998 21.6666Z" fill="#507B8B"/>
</g>
<path d="M44 21L41.568 11.992L39.12 21H37.312L34.32 9.512H36.048L38.256 18.36L40.672 9.512H42.496L44.88 18.376L47.088 9.512H48.816L45.824 21H44ZM53.0299 21.16C50.5819 21.16 48.9339 19.384 48.9339 16.712C48.9339 14.2 50.6459 12.36 52.9819 12.36C55.5099 12.36 57.1899 14.408 56.9019 17.16H50.5819C50.7099 18.888 51.5739 19.896 52.9979 19.896C54.1979 19.896 55.0299 19.24 55.3019 18.136H56.9019C56.4859 20.024 55.0299 21.16 53.0299 21.16ZM52.9499 13.576C51.6539 13.576 50.7739 14.504 50.5979 16.088H55.1899C55.1099 14.52 54.2619 13.576 52.9499 13.576ZM65.34 18.472C65.34 20.136 64.044 21.16 61.788 21.16C59.548 21.16 58.22 20.056 58.06 18.232H59.612C59.676 19.288 60.524 19.944 61.82 19.944C62.956 19.944 63.708 19.544 63.708 18.744C63.708 18.04 63.276 17.736 62.22 17.528L60.844 17.272C59.276 16.968 58.396 16.168 58.396 14.888C58.396 13.4 59.692 12.36 61.66 12.36C63.692 12.36 65.068 13.448 65.212 15.192H63.66C63.564 14.168 62.812 13.576 61.676 13.576C60.652 13.576 59.964 14.008 59.964 14.744C59.964 15.432 60.396 15.752 61.42 15.944L62.86 16.216C64.54 16.52 65.34 17.256 65.34 18.472ZM71.779 19.432V20.856C71.283 21.08 70.851 21.16 70.339 21.16C68.771 21.16 67.683 20.312 67.683 18.44V13.896H65.811V12.52H67.683V10.008H69.299V12.52H71.859V13.896H69.299V18.072C69.299 19.24 69.859 19.656 70.723 19.656C71.107 19.656 71.443 19.592 71.779 19.432ZM75.0173 21H73.4013V12.52H74.9053V13.928C75.4813 12.952 76.3932 12.36 77.5613 12.36C78.8093 12.36 79.7533 13 80.1373 14.12C80.7292 13.032 81.7053 12.36 83.0013 12.36C84.7453 12.36 85.8653 13.496 85.8653 15.512V21H84.2493V16.024C84.2493 14.616 83.6253 13.784 82.4413 13.784C81.3373 13.784 80.4413 14.712 80.4413 16.136V21H78.8253V16.024C78.8253 14.616 78.2013 13.784 77.0173 13.784C75.8973 13.784 75.0173 14.712 75.0173 16.136V21ZM89.9943 10.552C89.9943 11.16 89.5143 11.624 88.8263 11.624C88.1383 11.624 87.6423 11.16 87.6423 10.552C87.6423 9.928 88.1383 9.48 88.8263 9.48C89.5143 9.48 89.9943 9.928 89.9943 10.552ZM89.6423 21H88.0263V12.52H89.6423V21ZM93.5016 16.216V21H91.8856V12.52H93.3896V13.928C93.9656 12.984 94.9256 12.36 96.0936 12.36C97.8376 12.36 98.9896 13.48 98.9896 15.512V21H97.3736V16.056C97.3736 14.6 96.7336 13.784 95.5336 13.784C94.4296 13.784 93.5016 14.712 93.5016 16.216ZM107.856 18.472C107.856 20.136 106.56 21.16 104.304 21.16C102.064 21.16 100.736 20.056 100.576 18.232H102.128C102.192 19.288 103.04 19.944 104.336 19.944C105.472 19.944 106.224 19.544 106.224 18.744C106.224 18.04 105.792 17.736 104.736 17.528L103.36 17.272C101.792 16.968 100.912 16.168 100.912 14.888C100.912 13.4 102.208 12.36 104.176 12.36C106.208 12.36 107.584 13.448 107.728 15.192H106.176C106.08 14.168 105.328 13.576 104.192 13.576C103.168 13.576 102.48 14.008 102.48 14.744C102.48 15.432 102.912 15.752 103.936 15.944L105.376 16.216C107.056 16.52 107.856 17.256 107.856 18.472ZM114.295 19.432V20.856C113.799 21.08 113.367 21.16 112.855 21.16C111.287 21.16 110.199 20.312 110.199 18.44V13.896H108.327V12.52H110.199V10.008H111.815V12.52H114.375V13.896H111.815V18.072C111.815 19.24 112.375 19.656 113.239 19.656C113.623 19.656 113.959 19.592 114.295 19.432ZM119.171 21.16C116.723 21.16 115.075 19.384 115.075 16.712C115.075 14.2 116.787 12.36 119.123 12.36C121.651 12.36 123.331 14.408 123.043 17.16H116.723C116.851 18.888 117.715 19.896 119.139 19.896C120.339 19.896 121.171 19.24 121.443 18.136H123.043C122.627 20.024 121.171 21.16 119.171 21.16ZM119.091 13.576C117.795 13.576 116.914 14.504 116.739 16.088H121.331C121.251 14.52 120.403 13.576 119.091 13.576ZM126.377 16.664V21H124.761V12.52H126.265V14.312C126.857 13.144 128.137 12.408 129.529 12.408V14.088C127.705 13.992 126.377 14.792 126.377 16.664ZM142.183 21L141.143 18.152H136.183L135.127 21H133.351L137.751 9.512H139.687L144.055 21H142.183ZM138.679 11.432L136.711 16.728H140.615L138.679 11.432ZM153.607 16.76C153.607 19.304 152.135 21.16 149.847 21.16C148.647 21.16 147.623 20.552 147.015 19.48V21H145.511V9.512H147.127V13.976C147.719 12.936 148.695 12.36 149.847 12.36C152.119 12.36 153.607 14.184 153.607 16.76ZM151.927 16.76C151.927 14.84 150.919 13.784 149.527 13.784C148.183 13.784 147.127 14.824 147.127 16.728C147.127 18.6 148.151 19.72 149.527 19.72C150.919 19.72 151.927 18.648 151.927 16.76ZM163.341 16.76C163.341 19.304 161.869 21.16 159.581 21.16C158.381 21.16 157.357 20.552 156.749 19.48V21H155.245V9.512H156.861V13.976C157.453 12.936 158.429 12.36 159.581 12.36C161.853 12.36 163.341 14.184 163.341 16.76ZM161.661 16.76C161.661 14.84 160.653 13.784 159.261 13.784C157.917 13.784 156.861 14.824 156.861 16.728C156.861 18.6 157.885 19.72 159.261 19.72C160.653 19.72 161.661 18.648 161.661 16.76ZM168.467 21.16C166.019 21.16 164.371 19.384 164.371 16.712C164.371 14.2 166.083 12.36 168.419 12.36C170.947 12.36 172.627 14.408 172.339 17.16H166.019C166.147 18.888 167.011 19.896 168.435 19.896C169.635 19.896 170.467 19.24 170.739 18.136H172.339C171.923 20.024 170.467 21.16 168.467 21.16ZM168.387 13.576C167.091 13.576 166.211 14.504 166.035 16.088H170.627C170.547 14.52 169.699 13.576 168.387 13.576ZM180.832 12.52L176.592 24.088H174.832L176.048 20.888L172.704 12.52H174.448L176.912 18.984L179.2 12.52H180.832Z" fill="#1C2B31"/>
</svg>
