<svg width="30" height="30" viewBox="0 0 30 30" fill="none" xmlns="http://www.w3.org/2000/svg">
<mask id="mask0_188_7794" style="mask-type:alpha" maskUnits="userSpaceOnUse" x="0" y="0" width="30" height="30">
<rect x="0.846191" y="0.846191" width="28.3077" height="28.3077" fill="#D9D9D9"/>
</mask>
<g mask="url(#mask0_188_7794)">
<path d="M3.20508 23.2565V16.1795C3.20508 15.6488 3.3132 15.1672 3.52944 14.7347C3.74568 14.3022 4.03072 13.9189 4.38457 13.5847V10.2821C4.38457 9.29921 4.72858 8.46374 5.41662 7.7757C6.10465 7.08767 6.94012 6.74365 7.92303 6.74365H12.641C13.0931 6.74365 13.5158 6.8272 13.9089 6.99429C14.3021 7.16139 14.6658 7.39237 14.9999 7.68724C15.3341 7.39237 15.6978 7.16139 16.091 6.99429C16.4841 6.8272 16.9068 6.74365 17.3589 6.74365H22.0769C23.0598 6.74365 23.8952 7.08767 24.5833 7.7757C25.2713 8.46374 25.6153 9.29921 25.6153 10.2821V13.5847C25.9692 13.9189 26.2542 14.3022 26.4705 14.7347C26.6867 15.1672 26.7948 15.6488 26.7948 16.1795V23.2565H24.4358V20.8975H5.56405V23.2565H3.20508ZM16.1794 12.6411H23.2564V10.2821C23.2564 9.94793 23.1433 9.6678 22.9173 9.44173C22.6912 9.21566 22.4111 9.10263 22.0769 9.10263H17.3589C17.0247 9.10263 16.7446 9.21566 16.5185 9.44173C16.2925 9.6678 16.1794 9.94793 16.1794 10.2821V12.6411ZM6.74354 12.6411H13.8205V10.2821C13.8205 9.94793 13.7074 9.6678 13.4814 9.44173C13.2553 9.21566 12.9752 9.10263 12.641 9.10263H7.92303C7.58884 9.10263 7.30871 9.21566 7.08264 9.44173C6.85657 9.6678 6.74354 9.94793 6.74354 10.2821V12.6411ZM5.56405 18.5385H24.4358V16.1795C24.4358 15.8454 24.3228 15.5652 24.0967 15.3392C23.8707 15.1131 23.5905 15.0001 23.2564 15.0001H6.74354C6.40935 15.0001 6.12922 15.1131 5.90316 15.3392C5.67709 15.5652 5.56405 15.8454 5.56405 16.1795V18.5385Z" fill="#507B8B"/>
</g>
</svg>
