<svg width="1320" height="505" viewBox="0 0 1320 505" fill="none" xmlns="http://www.w3.org/2000/svg">
<rect width="1320" height="196" rx="8" fill="#F6F8F9"/>
<path d="M37.424 57H33.776V39.768H37.424V57ZM43.9959 50.016V57H40.6599V44.184H43.7319V46.008C44.6679 44.736 45.9879 43.944 47.6679 43.944C50.2359 43.944 52.0119 45.624 52.0119 48.72V57H48.6999V49.848C48.6999 47.952 47.9559 46.896 46.4439 46.896C45.1239 46.896 43.9959 47.952 43.9959 50.016ZM58.2224 50.016V57H54.8864V44.184H57.9584V46.008C58.8944 44.736 60.2144 43.944 61.8944 43.944C64.4624 43.944 66.2384 45.624 66.2384 48.72V57H62.9264V49.848C62.9264 47.952 62.1824 46.896 60.6704 46.896C59.3504 46.896 58.2224 47.952 58.2224 50.016ZM74.777 57.24C71.057 57.24 68.273 54.312 68.273 50.592C68.273 46.848 71.057 43.944 74.777 43.944C78.497 43.944 81.281 46.848 81.281 50.592C81.281 54.312 78.497 57.24 74.777 57.24ZM74.777 54.288C76.433 54.288 77.849 52.968 77.849 50.592C77.849 48.216 76.433 46.92 74.777 46.92C73.121 46.92 71.705 48.216 71.705 50.592C71.705 52.968 73.121 54.288 74.777 54.288ZM94.5086 44.184L89.8046 57H86.1566L81.4286 44.184H85.0286L88.0766 53.208L91.1486 44.184H94.5086ZM103.276 57V55.416C102.436 56.616 101.164 57.24 99.4123 57.24C96.7483 57.24 94.9723 55.68 94.9723 53.28C94.9723 50.784 96.9883 49.44 100.732 49.44C101.452 49.44 102.076 49.488 102.868 49.584V48.816C102.868 47.376 102.052 46.536 100.66 46.536C99.2203 46.536 98.3563 47.376 98.2363 48.816H95.2363C95.4283 45.864 97.5643 43.944 100.66 43.944C104.02 43.944 105.988 45.792 105.988 48.936V57H103.276ZM98.1163 53.184C98.1163 54.264 98.8843 54.936 100.132 54.936C101.836 54.936 102.868 54 102.868 52.512V51.6C102.076 51.48 101.524 51.432 100.948 51.432C99.0523 51.432 98.1163 52.032 98.1163 53.184ZM116.644 53.76V56.664C115.828 57.072 115.06 57.24 114.076 57.24C111.436 57.24 109.78 55.728 109.78 52.848V47.04H107.188V44.184H109.78V40.392H113.092V44.184H116.764V47.04H113.092V52.08C113.092 53.568 113.764 54.168 114.964 54.168C115.588 54.168 116.164 54.024 116.644 53.76ZM122.665 41.208C122.665 42.336 121.753 43.176 120.433 43.176C119.137 43.176 118.225 42.336 118.225 41.208C118.225 40.032 119.137 39.192 120.433 39.192C121.753 39.192 122.665 40.032 122.665 41.208ZM122.137 57H118.801V44.184H122.137V57ZM136.649 44.184L131.945 57H128.297L123.569 44.184H127.169L130.217 53.208L133.289 44.184H136.649ZM143.236 57.216C139.396 57.216 136.828 54.552 136.828 50.544C136.828 46.728 139.492 43.944 143.188 43.944C147.244 43.944 149.932 47.232 149.332 51.408H140.236C140.452 53.496 141.46 54.648 143.164 54.648C144.628 54.648 145.612 53.928 145.996 52.656H149.308C148.588 55.56 146.356 57.216 143.236 57.216ZM143.116 46.392C141.556 46.392 140.572 47.4 140.284 49.296H145.804C145.708 47.52 144.7 46.392 143.116 46.392ZM164.502 57.36C159.654 57.36 155.862 53.424 155.862 48.36C155.862 43.32 159.654 39.408 164.502 39.408C169.038 39.408 172.59 42.432 173.19 46.848H169.326C168.918 44.376 166.998 42.672 164.55 42.672C161.598 42.672 159.606 45 159.606 48.36C159.606 51.744 161.598 54.096 164.55 54.096C166.998 54.096 168.894 52.368 169.326 49.896H173.19C172.59 54.36 169.038 57.36 164.502 57.36ZM181.113 57.24C177.393 57.24 174.609 54.312 174.609 50.592C174.609 46.848 177.393 43.944 181.113 43.944C184.833 43.944 187.617 46.848 187.617 50.592C187.617 54.312 184.833 57.24 181.113 57.24ZM181.113 54.288C182.769 54.288 184.185 52.968 184.185 50.592C184.185 48.216 182.769 46.92 181.113 46.92C179.457 46.92 178.041 48.216 178.041 50.592C178.041 52.968 179.457 54.288 181.113 54.288ZM196.672 51.888H189.352V48.912H196.672V51.888ZM207.139 57.36C202.171 57.36 198.331 53.52 198.331 48.36C198.331 43.2 202.171 39.408 207.139 39.408C212.131 39.408 215.995 43.2 215.995 48.36C215.995 53.52 212.131 57.36 207.139 57.36ZM207.139 54.096C210.307 54.096 212.227 51.528 212.227 48.36C212.227 45.192 210.307 42.672 207.139 42.672C203.995 42.672 202.075 45.192 202.075 48.36C202.075 51.528 203.995 54.096 207.139 54.096ZM228.734 57L226.31 48.672L223.91 57H220.574L216.926 44.184H220.166L222.35 52.296L224.702 44.184H227.99L230.27 52.296L232.43 44.184H235.718L232.046 57H228.734ZM240.73 50.016V57H237.394V44.184H240.466V46.008C241.402 44.736 242.722 43.944 244.402 43.944C246.97 43.944 248.746 45.624 248.746 48.72V57H245.434V49.848C245.434 47.952 244.69 46.896 243.178 46.896C241.858 46.896 240.73 47.952 240.73 50.016ZM257.189 57.216C253.349 57.216 250.781 54.552 250.781 50.544C250.781 46.728 253.445 43.944 257.141 43.944C261.197 43.944 263.885 47.232 263.285 51.408H254.189C254.405 53.496 255.413 54.648 257.117 54.648C258.581 54.648 259.565 53.928 259.949 52.656H263.261C262.541 55.56 260.309 57.216 257.189 57.216ZM257.069 46.392C255.509 46.392 254.525 47.4 254.237 49.296H259.757C259.661 47.52 258.653 46.392 257.069 46.392ZM268.855 50.784V57H265.519V44.184H268.591V46.656C269.527 45.024 271.519 44.04 273.583 44.04V47.496C270.751 47.28 268.855 47.952 268.855 50.784ZM286.14 52.896C286.14 55.584 284.1 57.24 280.452 57.24C276.804 57.24 274.764 55.488 274.5 52.632H277.692C277.716 53.952 278.844 54.792 280.5 54.792C281.796 54.792 282.78 54.384 282.78 53.472C282.78 52.656 282.252 52.32 281.028 52.08L278.724 51.648C276.42 51.24 275.028 49.968 275.028 47.976C275.028 45.6 277.068 43.944 280.26 43.944C283.476 43.944 285.684 45.648 285.924 48.408H282.732C282.612 47.16 281.676 46.392 280.26 46.392C279.036 46.392 278.22 46.848 278.22 47.664C278.22 48.432 278.748 48.744 279.9 48.96L282.372 49.416C284.868 49.896 286.14 51.048 286.14 52.896ZM291.754 50.016V57H288.418V39.768H291.754V45.864C292.642 44.688 293.746 43.944 295.426 43.944C297.994 43.944 299.77 45.624 299.77 48.72V57H296.458V49.848C296.458 47.952 295.714 46.896 294.202 46.896C292.882 46.896 291.754 47.952 291.754 50.016ZM306.508 41.208C306.508 42.336 305.596 43.176 304.276 43.176C302.98 43.176 302.068 42.336 302.068 41.208C302.068 40.032 302.98 39.192 304.276 39.192C305.596 39.192 306.508 40.032 306.508 41.208ZM305.98 57H302.644V44.184H305.98V57ZM321.741 50.592C321.741 54.384 319.509 57.24 316.053 57.24C314.541 57.24 313.245 56.592 312.285 55.344V61.632H308.949V44.184H312.021V46.056C313.005 44.688 314.421 43.944 316.053 43.944C319.509 43.944 321.741 46.824 321.741 50.592ZM318.309 50.592C318.309 48.192 316.941 46.896 315.309 46.896C313.677 46.896 312.309 48.168 312.309 50.592C312.309 53.016 313.677 54.264 315.309 54.264C316.941 54.264 318.309 53.04 318.309 50.592ZM337.006 57L332.494 45.552V57H329.182V39.768H333.55L338.542 52.536L343.558 39.768H347.926V57H344.614V45.456L340.054 57H337.006ZM356.824 57.24C353.104 57.24 350.32 54.312 350.32 50.592C350.32 46.848 353.104 43.944 356.824 43.944C360.544 43.944 363.328 46.848 363.328 50.592C363.328 54.312 360.544 57.24 356.824 57.24ZM356.824 54.288C358.48 54.288 359.896 52.968 359.896 50.592C359.896 48.216 358.48 46.92 356.824 46.92C355.168 46.92 353.752 48.216 353.752 50.592C353.752 52.968 355.168 54.288 356.824 54.288ZM364.617 50.592C364.617 46.8 366.849 43.944 370.305 43.944C371.841 43.944 373.137 44.616 374.097 45.84V39.768H377.409V57H374.361V55.152C373.353 56.496 371.961 57.24 370.305 57.24C366.849 57.24 364.617 54.336 364.617 50.592ZM368.049 50.592C368.049 52.992 369.417 54.264 371.049 54.264C372.705 54.264 374.073 52.968 374.073 50.544C374.073 48.12 372.681 46.896 371.049 46.896C369.417 46.896 368.049 48.144 368.049 50.592ZM385.954 57.216C382.114 57.216 379.546 54.552 379.546 50.544C379.546 46.728 382.21 43.944 385.906 43.944C389.962 43.944 392.65 47.232 392.05 51.408H382.954C383.17 53.496 384.178 54.648 385.882 54.648C387.346 54.648 388.33 53.928 388.714 52.656H392.026C391.306 55.56 389.074 57.216 385.954 57.216ZM385.834 46.392C384.274 46.392 383.29 47.4 383.002 49.296H388.522C388.426 47.52 387.418 46.392 385.834 46.392ZM397.645 57H394.285V39.768H397.645V57Z" fill="#1C2B31"/>
<path d="M1265.1 48.912C1265.1 43.536 1267.36 40.536 1271.37 40.536C1275.38 40.536 1277.66 43.536 1277.66 48.912C1277.66 54.264 1275.42 57.24 1271.37 57.24C1267.31 57.24 1265.1 54.264 1265.1 48.912ZM1268.54 48.912C1268.54 52.392 1269.5 54.264 1271.37 54.264C1273.22 54.264 1274.22 52.392 1274.22 48.912C1274.22 45.408 1273.22 43.512 1271.37 43.512C1269.54 43.512 1268.54 45.408 1268.54 48.912ZM1285.42 57H1282.08V43.656H1279.01V40.776H1285.42V57Z" fill="#1C2B31" fill-opacity="0.2"/>
<path d="M42.854 99.22C42.854 101.47 41.054 103.18 37.922 103.18C34.808 103.18 32.918 101.47 32.756 98.896H34.772C34.862 100.534 35.906 101.596 37.886 101.596C39.524 101.596 40.748 100.822 40.748 99.49C40.748 98.41 40.046 97.87 38.552 97.546L36.68 97.186C34.862 96.826 33.206 95.908 33.206 93.712C33.206 91.534 35.114 89.896 37.796 89.896C40.478 89.896 42.512 91.534 42.674 94.108H40.658C40.55 92.56 39.434 91.48 37.814 91.48C36.14 91.48 35.222 92.47 35.222 93.586C35.222 94.81 36.284 95.242 37.49 95.494L39.398 95.872C41.612 96.322 42.854 97.294 42.854 99.22ZM48.9982 103.18C46.2982 103.18 44.3182 101.056 44.3182 98.23C44.3182 95.404 46.2982 93.28 48.9982 93.28C51.6982 93.28 53.6782 95.404 53.6782 98.23C53.6782 101.056 51.6982 103.18 48.9982 103.18ZM48.9982 101.578C50.5642 101.578 51.8062 100.318 51.8062 98.23C51.8062 96.142 50.5642 94.9 48.9982 94.9C47.4322 94.9 46.2082 96.142 46.2082 98.23C46.2082 100.318 47.4322 101.578 48.9982 101.578ZM59.2935 103.198C56.6835 103.198 54.8475 101.146 54.8475 98.23C54.8475 95.35 56.7195 93.28 59.2935 93.28C61.6515 93.28 63.3615 94.846 63.7035 97.33H61.7955C61.5975 95.8 60.6435 94.882 59.3115 94.882C57.7455 94.882 56.7195 96.214 56.7195 98.23C56.7195 100.264 57.7455 101.578 59.3115 101.578C60.6615 101.578 61.5975 100.678 61.8135 99.13H63.7035C63.3795 101.65 61.6875 103.198 59.2935 103.198ZM67.7474 91.246C67.7474 91.93 67.2074 92.452 66.4334 92.452C65.6594 92.452 65.1014 91.93 65.1014 91.246C65.1014 90.544 65.6594 90.04 66.4334 90.04C67.2074 90.04 67.7474 90.544 67.7474 91.246ZM67.3514 103H65.5334V93.46H67.3514V103ZM75.6532 103V101.524C75.0592 102.586 73.9972 103.18 72.5932 103.18C70.6132 103.18 69.3172 102.046 69.3172 100.3C69.3172 98.428 70.8112 97.456 73.6552 97.456C74.2132 97.456 74.6632 97.474 75.4372 97.564V96.862C75.4372 95.494 74.6992 94.72 73.4392 94.72C72.1072 94.72 71.2972 95.512 71.2432 96.844H69.5872C69.6772 94.702 71.2072 93.28 73.4392 93.28C75.7972 93.28 77.1652 94.612 77.1652 96.88V103H75.6532ZM71.0452 100.246C71.0452 101.236 71.7832 101.884 72.9532 101.884C74.4832 101.884 75.4372 100.93 75.4372 99.472V98.698C74.7352 98.608 74.2312 98.59 73.7632 98.59C71.9452 98.59 71.0452 99.13 71.0452 100.246ZM81.4319 103H79.5959V90.076H81.4319V103ZM93.243 98.158V103H91.245V98.158L86.601 90.076H88.761L92.307 96.304L95.889 90.076H97.905L93.243 98.158ZM101.515 91.246C101.515 91.93 100.975 92.452 100.201 92.452C99.427 92.452 98.869 91.93 98.869 91.246C98.869 90.544 99.427 90.04 100.201 90.04C100.975 90.04 101.515 90.544 101.515 91.246ZM101.119 103H99.301V93.46H101.119V103ZM107.567 103.18C104.813 103.18 102.959 101.182 102.959 98.176C102.959 95.35 104.885 93.28 107.513 93.28C110.357 93.28 112.247 95.584 111.923 98.68H104.813C104.957 100.624 105.929 101.758 107.531 101.758C108.881 101.758 109.817 101.02 110.123 99.778H111.923C111.455 101.902 109.817 103.18 107.567 103.18ZM107.477 94.648C106.019 94.648 105.029 95.692 104.831 97.474H109.997C109.907 95.71 108.953 94.648 107.477 94.648ZM115.692 103H113.856V90.076H115.692V103ZM117.531 98.23C117.531 95.332 119.187 93.28 121.761 93.28C123.039 93.28 124.155 93.928 124.821 95.098V90.076H126.639V103H124.947V101.29C124.263 102.496 123.111 103.18 121.761 103.18C119.187 103.18 117.531 101.092 117.531 98.23ZM119.421 98.23C119.421 100.354 120.537 101.56 122.121 101.56C123.669 101.56 124.821 100.3 124.821 98.194C124.821 96.052 123.633 94.882 122.121 94.882C120.537 94.882 119.421 96.07 119.421 98.23ZM138.706 103.27C135.106 103.27 132.316 100.336 132.316 96.52C132.316 92.722 135.106 89.806 138.706 89.806C141.946 89.806 144.538 91.966 145.024 95.152H142.918C142.558 93.064 140.866 91.588 138.724 91.588C136.168 91.588 134.368 93.658 134.368 96.52C134.368 99.418 136.168 101.488 138.724 101.488C140.866 101.488 142.558 99.994 142.918 97.906H145.024C144.538 101.11 141.946 103.27 138.706 103.27ZM152.716 103V101.524C152.122 102.586 151.06 103.18 149.656 103.18C147.676 103.18 146.38 102.046 146.38 100.3C146.38 98.428 147.874 97.456 150.718 97.456C151.276 97.456 151.726 97.474 152.5 97.564V96.862C152.5 95.494 151.762 94.72 150.502 94.72C149.17 94.72 148.36 95.512 148.306 96.844H146.65C146.74 94.702 148.27 93.28 150.502 93.28C152.86 93.28 154.228 94.612 154.228 96.88V103H152.716ZM148.108 100.246C148.108 101.236 148.846 101.884 150.016 101.884C151.546 101.884 152.5 100.93 152.5 99.472V98.698C151.798 98.608 151.294 98.59 150.826 98.59C149.008 98.59 148.108 99.13 148.108 100.246ZM165.766 98.23C165.766 101.11 164.11 103.18 161.554 103.18C160.258 103.18 159.16 102.532 158.476 101.38V106.474H156.658V93.46H158.35V95.206C159.034 93.982 160.204 93.28 161.554 93.28C164.092 93.28 165.766 95.35 165.766 98.23ZM163.876 98.23C163.876 96.088 162.742 94.882 161.176 94.882C159.664 94.882 158.476 96.088 158.476 98.23C158.476 100.336 159.646 101.56 161.176 101.56C162.742 101.56 163.876 100.372 163.876 98.23ZM169.824 91.246C169.824 91.93 169.284 92.452 168.51 92.452C167.736 92.452 167.178 91.93 167.178 91.246C167.178 90.544 167.736 90.04 168.51 90.04C169.284 90.04 169.824 90.544 169.824 91.246ZM169.428 103H167.61V93.46H169.428V103ZM177.333 101.236V102.838C176.775 103.09 176.289 103.18 175.713 103.18C173.949 103.18 172.725 102.226 172.725 100.12V95.008H170.619V93.46H172.725V90.634H174.543V93.46H177.423V95.008H174.543V99.706C174.543 101.02 175.173 101.488 176.145 101.488C176.577 101.488 176.955 101.416 177.333 101.236ZM184.936 103V101.524C184.342 102.586 183.28 103.18 181.876 103.18C179.896 103.18 178.6 102.046 178.6 100.3C178.6 98.428 180.094 97.456 182.938 97.456C183.496 97.456 183.946 97.474 184.72 97.564V96.862C184.72 95.494 183.982 94.72 182.722 94.72C181.39 94.72 180.58 95.512 180.526 96.844H178.87C178.96 94.702 180.49 93.28 182.722 93.28C185.08 93.28 186.448 94.612 186.448 96.88V103H184.936ZM180.328 100.246C180.328 101.236 181.066 101.884 182.236 101.884C183.766 101.884 184.72 100.93 184.72 99.472V98.698C184.018 98.608 183.514 98.59 183.046 98.59C181.228 98.59 180.328 99.13 180.328 100.246ZM190.715 103H188.879V90.076H190.715V103ZM200.996 103.18C198.296 103.18 196.316 101.056 196.316 98.23C196.316 95.404 198.296 93.28 200.996 93.28C203.696 93.28 205.676 95.404 205.676 98.23C205.676 101.056 203.696 103.18 200.996 103.18ZM200.996 101.578C202.562 101.578 203.804 100.318 203.804 98.23C203.804 96.142 202.562 94.9 200.996 94.9C199.43 94.9 198.206 96.142 198.206 98.23C198.206 100.318 199.43 101.578 200.996 101.578ZM209.948 103H208.13V95.008H206.024V93.46H208.13V92.758C208.13 90.922 209.12 89.914 210.92 89.914C211.46 89.914 211.892 90.004 212.252 90.148V91.624C211.964 91.498 211.64 91.462 211.316 91.462C210.452 91.462 209.948 91.858 209.948 92.776V93.46H212.612V95.008H209.948V103ZM217.208 103H215.39V95.008H213.284V93.46H215.39V92.758C215.39 90.922 216.38 89.914 218.18 89.914C218.72 89.914 219.152 90.004 219.512 90.148V91.624C219.224 91.498 218.9 91.462 218.576 91.462C217.712 91.462 217.208 91.858 217.208 92.776V93.46H219.872V95.008H217.208V103ZM224.918 103.18C222.164 103.18 220.31 101.182 220.31 98.176C220.31 95.35 222.236 93.28 224.864 93.28C227.708 93.28 229.598 95.584 229.274 98.68H222.164C222.308 100.624 223.28 101.758 224.882 101.758C226.232 101.758 227.168 101.02 227.474 99.778H229.274C228.806 101.902 227.168 103.18 224.918 103.18ZM224.828 94.648C223.37 94.648 222.38 95.692 222.182 97.474H227.348C227.258 95.71 226.304 94.648 224.828 94.648ZM233.025 98.122V103H231.207V93.46H232.899V95.476C233.565 94.162 235.005 93.334 236.571 93.334V95.224C234.519 95.116 233.025 96.016 233.025 98.122ZM245.57 100.156C245.57 102.028 244.112 103.18 241.574 103.18C239.054 103.18 237.56 101.938 237.38 99.886H239.126C239.198 101.074 240.152 101.812 241.61 101.812C242.888 101.812 243.734 101.362 243.734 100.462C243.734 99.67 243.248 99.328 242.06 99.094L240.512 98.806C238.748 98.464 237.758 97.564 237.758 96.124C237.758 94.45 239.216 93.28 241.43 93.28C243.716 93.28 245.264 94.504 245.426 96.466H243.68C243.572 95.314 242.726 94.648 241.448 94.648C240.296 94.648 239.522 95.134 239.522 95.962C239.522 96.736 240.008 97.096 241.16 97.312L242.78 97.618C244.67 97.96 245.57 98.788 245.57 100.156ZM257.095 103V101.524C256.501 102.586 255.439 103.18 254.035 103.18C252.055 103.18 250.759 102.046 250.759 100.3C250.759 98.428 252.253 97.456 255.097 97.456C255.655 97.456 256.105 97.474 256.879 97.564V96.862C256.879 95.494 256.141 94.72 254.881 94.72C253.549 94.72 252.739 95.512 252.685 96.844H251.029C251.119 94.702 252.649 93.28 254.881 93.28C257.239 93.28 258.607 94.612 258.607 96.88V103H257.095ZM252.487 100.246C252.487 101.236 253.225 101.884 254.395 101.884C255.925 101.884 256.879 100.93 256.879 99.472V98.698C256.177 98.608 255.673 98.59 255.205 98.59C253.387 98.59 252.487 99.13 252.487 100.246ZM270.757 99.076V93.46H272.575V103H270.883V101.488C270.379 102.478 269.263 103.18 267.967 103.18C266.041 103.18 264.709 102.046 264.709 99.598V93.46H266.527V99.238C266.527 100.894 267.355 101.578 268.543 101.578C269.767 101.578 270.757 100.57 270.757 99.076ZM276.918 97.618V103H275.1V93.46H276.792V95.044C277.44 93.982 278.52 93.28 279.834 93.28C281.796 93.28 283.092 94.54 283.092 96.826V103H281.274V97.438C281.274 95.8 280.554 94.882 279.204 94.882C277.962 94.882 276.918 95.926 276.918 97.618ZM287.72 91.246C287.72 91.93 287.18 92.452 286.406 92.452C285.632 92.452 285.074 91.93 285.074 91.246C285.074 90.544 285.632 90.04 286.406 90.04C287.18 90.04 287.72 90.544 287.72 91.246ZM287.324 103H285.506V93.46H287.324V103ZM289.164 98.23C289.164 95.35 290.82 93.28 293.394 93.28C294.762 93.28 295.914 93.982 296.58 95.224V93.46H298.272V106.474H296.454V101.38C295.77 102.532 294.672 103.18 293.394 103.18C290.82 103.18 289.164 101.11 289.164 98.23ZM291.054 98.23C291.054 100.372 292.17 101.56 293.754 101.56C295.302 101.56 296.454 100.336 296.454 98.23C296.454 96.088 295.284 94.882 293.754 94.882C292.17 94.882 291.054 96.088 291.054 98.23ZM306.757 99.076V93.46H308.575V103H306.883V101.488C306.379 102.478 305.263 103.18 303.967 103.18C302.041 103.18 300.709 102.046 300.709 99.598V93.46H302.527V99.238C302.527 100.894 303.355 101.578 304.543 101.578C305.767 101.578 306.757 100.57 306.757 99.076ZM315.024 103.18C312.27 103.18 310.416 101.182 310.416 98.176C310.416 95.35 312.342 93.28 314.97 93.28C317.814 93.28 319.704 95.584 319.38 98.68H312.27C312.414 100.624 313.386 101.758 314.988 101.758C316.338 101.758 317.274 101.02 317.58 99.778H319.38C318.912 101.902 317.274 103.18 315.024 103.18ZM314.934 94.648C313.476 94.648 312.486 95.692 312.288 97.474H317.454C317.364 95.71 316.41 94.648 314.934 94.648ZM328.836 103.198C326.226 103.198 324.39 101.146 324.39 98.23C324.39 95.35 326.262 93.28 328.836 93.28C331.194 93.28 332.904 94.846 333.246 97.33H331.338C331.14 95.8 330.186 94.882 328.854 94.882C327.288 94.882 326.262 96.214 326.262 98.23C326.262 100.264 327.288 101.578 328.854 101.578C330.204 101.578 331.14 100.678 331.356 99.13H333.246C332.922 101.65 331.23 103.198 328.836 103.198ZM338.985 103.18C336.285 103.18 334.305 101.056 334.305 98.23C334.305 95.404 336.285 93.28 338.985 93.28C341.685 93.28 343.665 95.404 343.665 98.23C343.665 101.056 341.685 103.18 338.985 103.18ZM338.985 101.578C340.551 101.578 341.793 100.318 341.793 98.23C341.793 96.142 340.551 94.9 338.985 94.9C337.419 94.9 336.195 96.142 336.195 98.23C336.195 100.318 337.419 101.578 338.985 101.578ZM350.569 98.86H344.971V97.222H350.569V98.86ZM356.545 103.18C353.845 103.18 351.865 101.056 351.865 98.23C351.865 95.404 353.845 93.28 356.545 93.28C359.245 93.28 361.225 95.404 361.225 98.23C361.225 101.056 359.245 103.18 356.545 103.18ZM356.545 101.578C358.111 101.578 359.353 100.318 359.353 98.23C359.353 96.142 358.111 94.9 356.545 94.9C354.979 94.9 353.755 96.142 353.755 98.23C353.755 100.318 354.979 101.578 356.545 101.578ZM370.751 103L368.591 95.908L366.413 103H364.577L361.823 93.46H363.605L365.531 100.408L367.691 93.46H369.491L371.615 100.426L373.541 93.46H375.341L372.569 103H370.751ZM378.642 97.618V103H376.824V93.46H378.516V95.044C379.164 93.982 380.244 93.28 381.558 93.28C383.52 93.28 384.816 94.54 384.816 96.826V103H382.998V97.438C382.998 95.8 382.278 94.882 380.928 94.882C379.686 94.882 378.642 95.926 378.642 97.618ZM391.155 103.18C388.401 103.18 386.547 101.182 386.547 98.176C386.547 95.35 388.473 93.28 391.101 93.28C393.945 93.28 395.835 95.584 395.511 98.68H388.401C388.545 100.624 389.517 101.758 391.119 101.758C392.469 101.758 393.405 101.02 393.711 99.778H395.511C395.043 101.902 393.405 103.18 391.155 103.18ZM391.065 94.648C389.607 94.648 388.617 95.692 388.419 97.474H393.585C393.495 95.71 392.541 94.648 391.065 94.648ZM399.262 98.122V103H397.444V93.46H399.136V95.476C399.802 94.162 401.242 93.334 402.808 93.334V95.224C400.756 95.116 399.262 96.016 399.262 98.122ZM411.806 100.156C411.806 102.028 410.348 103.18 407.81 103.18C405.29 103.18 403.796 101.938 403.616 99.886H405.362C405.434 101.074 406.388 101.812 407.846 101.812C409.124 101.812 409.97 101.362 409.97 100.462C409.97 99.67 409.484 99.328 408.296 99.094L406.748 98.806C404.984 98.464 403.994 97.564 403.994 96.124C403.994 94.45 405.452 93.28 407.666 93.28C409.952 93.28 411.5 94.504 411.662 96.466H409.916C409.808 95.314 408.962 94.648 407.684 94.648C406.532 94.648 405.758 95.134 405.758 95.962C405.758 96.736 406.244 97.096 407.396 97.312L409.016 97.618C410.906 97.96 411.806 98.788 411.806 100.156ZM415.609 97.618V103H413.791V90.076H415.609V94.99C416.239 93.964 417.211 93.28 418.525 93.28C420.487 93.28 421.783 94.54 421.783 96.826V103H419.965V97.438C419.965 95.8 419.245 94.882 417.895 94.882C416.653 94.882 415.609 95.926 415.609 97.618ZM426.412 91.246C426.412 91.93 425.872 92.452 425.098 92.452C424.324 92.452 423.766 91.93 423.766 91.246C423.766 90.544 424.324 90.04 425.098 90.04C425.872 90.04 426.412 90.544 426.412 91.246ZM426.016 103H424.198V93.46H426.016V103ZM437.647 98.23C437.647 101.11 435.991 103.18 433.435 103.18C432.139 103.18 431.041 102.532 430.357 101.38V106.474H428.539V93.46H430.231V95.206C430.915 93.982 432.085 93.28 433.435 93.28C435.973 93.28 437.647 95.35 437.647 98.23ZM435.757 98.23C435.757 96.088 434.623 94.882 433.057 94.882C431.545 94.882 430.357 96.088 430.357 98.23C430.357 100.336 431.527 101.56 433.057 101.56C434.623 101.56 435.757 100.372 435.757 98.23ZM445.07 103H443.252V93.46H444.944V95.044C445.592 93.946 446.618 93.28 447.932 93.28C449.336 93.28 450.398 94 450.83 95.26C451.496 94.036 452.594 93.28 454.052 93.28C456.014 93.28 457.274 94.558 457.274 96.826V103H455.456V97.402C455.456 95.818 454.754 94.882 453.422 94.882C452.18 94.882 451.172 95.926 451.172 97.528V103H449.354V97.402C449.354 95.818 448.652 94.882 447.32 94.882C446.06 94.882 445.07 95.926 445.07 97.528V103ZM463.701 103.18C461.001 103.18 459.021 101.056 459.021 98.23C459.021 95.404 461.001 93.28 463.701 93.28C466.401 93.28 468.381 95.404 468.381 98.23C468.381 101.056 466.401 103.18 463.701 103.18ZM463.701 101.578C465.267 101.578 466.509 100.318 466.509 98.23C466.509 96.142 465.267 94.9 463.701 94.9C462.135 94.9 460.911 96.142 460.911 98.23C460.911 100.318 462.135 101.578 463.701 101.578ZM469.551 98.23C469.551 95.332 471.207 93.28 473.781 93.28C475.059 93.28 476.175 93.928 476.841 95.098V90.076H478.659V103H476.967V101.29C476.283 102.496 475.131 103.18 473.781 103.18C471.207 103.18 469.551 101.092 469.551 98.23ZM471.441 98.23C471.441 100.354 472.557 101.56 474.141 101.56C475.689 101.56 476.841 100.3 476.841 98.194C476.841 96.052 475.653 94.882 474.141 94.882C472.557 94.882 471.441 96.07 471.441 98.23ZM485.11 103.18C482.356 103.18 480.502 101.182 480.502 98.176C480.502 95.35 482.428 93.28 485.056 93.28C487.9 93.28 489.79 95.584 489.466 98.68H482.356C482.5 100.624 483.472 101.758 485.074 101.758C486.424 101.758 487.36 101.02 487.666 99.778H489.466C488.998 101.902 487.36 103.18 485.11 103.18ZM485.02 94.648C483.562 94.648 482.572 95.692 482.374 97.474H487.54C487.45 95.71 486.496 94.648 485.02 94.648ZM493.235 103H491.399V90.076H493.235V103ZM504.902 101.236V102.838C504.344 103.09 503.858 103.18 503.282 103.18C501.518 103.18 500.294 102.226 500.294 100.12V95.008H498.188V93.46H500.294V90.634H502.112V93.46H504.992V95.008H502.112V99.706C502.112 101.02 502.742 101.488 503.714 101.488C504.146 101.488 504.524 101.416 504.902 101.236ZM508.545 97.618V103H506.727V90.076H508.545V94.99C509.175 93.964 510.147 93.28 511.461 93.28C513.423 93.28 514.719 94.54 514.719 96.826V103H512.901V97.438C512.901 95.8 512.181 94.882 510.831 94.882C509.589 94.882 508.545 95.926 508.545 97.618ZM522.911 103V101.524C522.317 102.586 521.255 103.18 519.851 103.18C517.871 103.18 516.575 102.046 516.575 100.3C516.575 98.428 518.069 97.456 520.913 97.456C521.471 97.456 521.921 97.474 522.695 97.564V96.862C522.695 95.494 521.957 94.72 520.697 94.72C519.365 94.72 518.555 95.512 518.501 96.844H516.845C516.935 94.702 518.465 93.28 520.697 93.28C523.055 93.28 524.423 94.612 524.423 96.88V103H522.911ZM518.303 100.246C518.303 101.236 519.041 101.884 520.211 101.884C521.741 101.884 522.695 100.93 522.695 99.472V98.698C521.993 98.608 521.489 98.59 521.021 98.59C519.203 98.59 518.303 99.13 518.303 100.246ZM532.148 101.236V102.838C531.59 103.09 531.104 103.18 530.528 103.18C528.764 103.18 527.54 102.226 527.54 100.12V95.008H525.434V93.46H527.54V90.634H529.358V93.46H532.238V95.008H529.358V99.706C529.358 101.02 529.988 101.488 530.96 101.488C531.392 101.488 531.77 101.416 532.148 101.236ZM35.078 130H33.26V120.46H34.952V122.044C35.6 120.946 36.626 120.28 37.94 120.28C39.344 120.28 40.406 121 40.838 122.26C41.504 121.036 42.602 120.28 44.06 120.28C46.022 120.28 47.282 121.558 47.282 123.826V130H45.464V124.402C45.464 122.818 44.762 121.882 43.43 121.882C42.188 121.882 41.18 122.926 41.18 124.528V130H39.362V124.402C39.362 122.818 38.66 121.882 37.328 121.882C36.068 121.882 35.078 122.926 35.078 124.528V130ZM55.4911 130V128.524C54.8971 129.586 53.8351 130.18 52.4311 130.18C50.4511 130.18 49.1551 129.046 49.1551 127.3C49.1551 125.428 50.6491 124.456 53.4931 124.456C54.0511 124.456 54.5011 124.474 55.2751 124.564V123.862C55.2751 122.494 54.5371 121.72 53.2771 121.72C51.9451 121.72 51.1351 122.512 51.0811 123.844H49.4251C49.5151 121.702 51.0451 120.28 53.2771 120.28C55.6351 120.28 57.0031 121.612 57.0031 123.88V130H55.4911ZM50.8831 127.246C50.8831 128.236 51.6211 128.884 52.7911 128.884C54.3211 128.884 55.2751 127.93 55.2751 126.472V125.698C54.5731 125.608 54.0691 125.59 53.6011 125.59C51.7831 125.59 50.8831 126.13 50.8831 127.246ZM61.2518 130H59.4338V117.076H61.2518V124.726L65.3378 120.46H67.4798L63.0698 125.086L67.8938 130H65.5538L61.2518 125.482V130ZM72.6391 130.18C69.8851 130.18 68.0311 128.182 68.0311 125.176C68.0311 122.35 69.9571 120.28 72.5851 120.28C75.4291 120.28 77.3191 122.584 76.9951 125.68H69.8851C70.0291 127.624 71.0011 128.758 72.6031 128.758C73.9531 128.758 74.8891 128.02 75.1951 126.778H76.9951C76.5271 128.902 74.8891 130.18 72.6391 130.18ZM72.5491 121.648C71.0911 121.648 70.1011 122.692 69.9031 124.474H75.0691C74.9791 122.71 74.0251 121.648 72.5491 121.648ZM86.488 127.156C86.488 129.028 85.03 130.18 82.492 130.18C79.972 130.18 78.478 128.938 78.298 126.886H80.044C80.116 128.074 81.07 128.812 82.528 128.812C83.806 128.812 84.652 128.362 84.652 127.462C84.652 126.67 84.166 126.328 82.978 126.094L81.43 125.806C79.666 125.464 78.676 124.564 78.676 123.124C78.676 121.45 80.134 120.28 82.348 120.28C84.634 120.28 86.182 121.504 86.344 123.466H84.598C84.49 122.314 83.644 121.648 82.366 121.648C81.214 121.648 80.44 122.134 80.44 122.962C80.44 123.736 80.926 124.096 82.078 124.312L83.698 124.618C85.588 124.96 86.488 125.788 86.488 127.156ZM101.343 125.23C101.343 128.11 99.6866 130.18 97.1306 130.18C95.8346 130.18 94.7366 129.532 94.0526 128.38V133.474H92.2346V120.46H93.9266V122.206C94.6106 120.982 95.7806 120.28 97.1306 120.28C99.6686 120.28 101.343 122.35 101.343 125.23ZM99.4526 125.23C99.4526 123.088 98.3186 121.882 96.7526 121.882C95.2406 121.882 94.0526 123.088 94.0526 125.23C94.0526 127.336 95.2226 128.56 96.7526 128.56C98.3186 128.56 99.4526 127.372 99.4526 125.23ZM105.004 125.122V130H103.186V120.46H104.878V122.476C105.544 121.162 106.984 120.334 108.55 120.334V122.224C106.498 122.116 105.004 123.016 105.004 125.122ZM113.949 130.18C111.249 130.18 109.269 128.056 109.269 125.23C109.269 122.404 111.249 120.28 113.949 120.28C116.649 120.28 118.629 122.404 118.629 125.23C118.629 128.056 116.649 130.18 113.949 130.18ZM113.949 128.578C115.515 128.578 116.757 127.318 116.757 125.23C116.757 123.142 115.515 121.9 113.949 121.9C112.383 121.9 111.159 123.142 111.159 125.23C111.159 127.318 112.383 128.578 113.949 128.578ZM129.591 125.23C129.591 128.11 127.935 130.18 125.379 130.18C124.083 130.18 122.985 129.532 122.301 128.38V133.474H120.483V120.46H122.175V122.206C122.859 120.982 124.029 120.28 125.379 120.28C127.917 120.28 129.591 122.35 129.591 125.23ZM127.701 125.23C127.701 123.088 126.567 121.882 125.001 121.882C123.489 121.882 122.301 123.088 122.301 125.23C122.301 127.336 123.471 128.56 125.001 128.56C126.567 128.56 127.701 127.372 127.701 125.23ZM135.358 130.18C132.604 130.18 130.75 128.182 130.75 125.176C130.75 122.35 132.676 120.28 135.304 120.28C138.148 120.28 140.038 122.584 139.714 125.68H132.604C132.748 127.624 133.72 128.758 135.322 128.758C136.672 128.758 137.608 128.02 137.914 126.778H139.714C139.246 128.902 137.608 130.18 135.358 130.18ZM135.268 121.648C133.81 121.648 132.82 122.692 132.622 124.474H137.788C137.698 122.71 136.744 121.648 135.268 121.648ZM143.465 125.122V130H141.647V120.46H143.339V122.476C144.005 121.162 145.445 120.334 147.011 120.334V122.224C144.959 122.116 143.465 123.016 143.465 125.122ZM154.412 128.236V129.838C153.854 130.09 153.368 130.18 152.792 130.18C151.028 130.18 149.804 129.226 149.804 127.12V122.008H147.698V120.46H149.804V117.634H151.622V120.46H154.502V122.008H151.622V126.706C151.622 128.02 152.252 128.488 153.224 128.488C153.656 128.488 154.034 128.416 154.412 128.236ZM164.157 120.46L159.387 133.474H157.407L158.775 129.874L155.013 120.46H156.975L159.747 127.732L162.321 120.46H164.157ZM171.423 118.246C171.423 118.93 170.883 119.452 170.109 119.452C169.335 119.452 168.777 118.93 168.777 118.246C168.777 117.544 169.335 117.04 170.109 117.04C170.883 117.04 171.423 117.544 171.423 118.246ZM171.027 130H169.209V120.46H171.027V130ZM175.369 124.618V130H173.551V120.46H175.243V122.044C175.891 120.982 176.971 120.28 178.285 120.28C180.247 120.28 181.543 121.54 181.543 123.826V130H179.725V124.438C179.725 122.8 179.005 121.882 177.655 121.882C176.413 121.882 175.369 122.926 175.369 124.618ZM191.526 120.46L187.944 130H185.964L182.382 120.46H184.344L186.99 127.912L189.672 120.46H191.526ZM196.442 130.18C193.688 130.18 191.834 128.182 191.834 125.176C191.834 122.35 193.76 120.28 196.388 120.28C199.232 120.28 201.122 122.584 200.798 125.68H193.688C193.832 127.624 194.804 128.758 196.406 128.758C197.756 128.758 198.692 128.02 198.998 126.778H200.798C200.33 128.902 198.692 130.18 196.442 130.18ZM196.352 121.648C194.894 121.648 193.904 122.692 193.706 124.474H198.872C198.782 122.71 197.828 121.648 196.352 121.648ZM210.291 127.156C210.291 129.028 208.833 130.18 206.295 130.18C203.775 130.18 202.281 128.938 202.101 126.886H203.847C203.919 128.074 204.873 128.812 206.331 128.812C207.609 128.812 208.455 128.362 208.455 127.462C208.455 126.67 207.969 126.328 206.781 126.094L205.233 125.806C203.469 125.464 202.479 124.564 202.479 123.124C202.479 121.45 203.937 120.28 206.151 120.28C208.437 120.28 209.985 121.504 210.147 123.466H208.401C208.293 122.314 207.447 121.648 206.169 121.648C205.017 121.648 204.243 122.134 204.243 122.962C204.243 123.736 204.729 124.096 205.881 124.312L207.501 124.618C209.391 124.96 210.291 125.788 210.291 127.156ZM217.535 128.236V129.838C216.977 130.09 216.491 130.18 215.915 130.18C214.151 130.18 212.927 129.226 212.927 127.12V122.008H210.821V120.46H212.927V117.634H214.745V120.46H217.625V122.008H214.745V126.706C214.745 128.02 215.375 128.488 216.347 128.488C216.779 128.488 217.157 128.416 217.535 128.236ZM221.178 130H219.36V120.46H221.052V122.044C221.7 120.946 222.726 120.28 224.04 120.28C225.444 120.28 226.506 121 226.938 122.26C227.604 121.036 228.702 120.28 230.16 120.28C232.122 120.28 233.382 121.558 233.382 123.826V130H231.564V124.402C231.564 122.818 230.862 121.882 229.53 121.882C228.288 121.882 227.28 122.926 227.28 124.528V130H225.462V124.402C225.462 122.818 224.76 121.882 223.428 121.882C222.168 121.882 221.178 122.926 221.178 124.528V130ZM239.737 130.18C236.983 130.18 235.129 128.182 235.129 125.176C235.129 122.35 237.055 120.28 239.683 120.28C242.527 120.28 244.417 122.584 244.093 125.68H236.983C237.127 127.624 238.099 128.758 239.701 128.758C241.051 128.758 241.987 128.02 242.293 126.778H244.093C243.625 128.902 241.987 130.18 239.737 130.18ZM239.647 121.648C238.189 121.648 237.199 122.692 237.001 124.474H242.167C242.077 122.71 241.123 121.648 239.647 121.648ZM247.844 124.618V130H246.026V120.46H247.718V122.044C248.366 120.982 249.446 120.28 250.76 120.28C252.722 120.28 254.018 121.54 254.018 123.826V130H252.2V124.438C252.2 122.8 251.48 121.882 250.13 121.882C248.888 121.882 247.844 122.926 247.844 124.618ZM261.779 128.236V129.838C261.221 130.09 260.735 130.18 260.159 130.18C258.395 130.18 257.171 129.226 257.171 127.12V122.008H255.065V120.46H257.171V117.634H258.989V120.46H261.869V122.008H258.989V126.706C258.989 128.02 259.619 128.488 260.591 128.488C261.023 128.488 261.401 128.416 261.779 128.236ZM273.143 130V128.524C272.549 129.586 271.487 130.18 270.083 130.18C268.103 130.18 266.807 129.046 266.807 127.3C266.807 125.428 268.301 124.456 271.145 124.456C271.703 124.456 272.153 124.474 272.927 124.564V123.862C272.927 122.494 272.189 121.72 270.929 121.72C269.597 121.72 268.787 122.512 268.733 123.844H267.077C267.167 121.702 268.697 120.28 270.929 120.28C273.287 120.28 274.655 121.612 274.655 123.88V130H273.143ZM268.535 127.246C268.535 128.236 269.273 128.884 270.443 128.884C271.973 128.884 272.927 127.93 272.927 126.472V125.698C272.225 125.608 271.721 125.59 271.253 125.59C269.435 125.59 268.535 126.13 268.535 127.246ZM280.848 130.198C278.238 130.198 276.402 128.146 276.402 125.23C276.402 122.35 278.274 120.28 280.848 120.28C283.206 120.28 284.916 121.846 285.258 124.33H283.35C283.152 122.8 282.198 121.882 280.866 121.882C279.3 121.882 278.274 123.214 278.274 125.23C278.274 127.264 279.3 128.578 280.866 128.578C282.216 128.578 283.152 127.678 283.368 126.13H285.258C284.934 128.65 283.242 130.198 280.848 130.198ZM290.762 130.198C288.152 130.198 286.316 128.146 286.316 125.23C286.316 122.35 288.188 120.28 290.762 120.28C293.12 120.28 294.83 121.846 295.172 124.33H293.264C293.066 122.8 292.112 121.882 290.78 121.882C289.214 121.882 288.188 123.214 288.188 125.23C288.188 127.264 289.214 128.578 290.78 128.578C292.13 128.578 293.066 127.678 293.282 126.13H295.172C294.848 128.65 293.156 130.198 290.762 130.198ZM300.838 130.18C298.084 130.18 296.23 128.182 296.23 125.176C296.23 122.35 298.156 120.28 300.784 120.28C303.628 120.28 305.518 122.584 305.194 125.68H298.084C298.228 127.624 299.2 128.758 300.802 128.758C302.152 128.758 303.088 128.02 303.394 126.778H305.194C304.726 128.902 303.088 130.18 300.838 130.18ZM300.748 121.648C299.29 121.648 298.3 122.692 298.102 124.474H303.268C303.178 122.71 302.224 121.648 300.748 121.648ZM314.687 127.156C314.687 129.028 313.229 130.18 310.691 130.18C308.171 130.18 306.677 128.938 306.497 126.886H308.243C308.315 128.074 309.269 128.812 310.727 128.812C312.005 128.812 312.851 128.362 312.851 127.462C312.851 126.67 312.365 126.328 311.177 126.094L309.629 125.806C307.865 125.464 306.875 124.564 306.875 123.124C306.875 121.45 308.333 120.28 310.547 120.28C312.833 120.28 314.381 121.504 314.543 123.466H312.797C312.689 122.314 311.843 121.648 310.565 121.648C309.413 121.648 308.639 122.134 308.639 122.962C308.639 123.736 309.125 124.096 310.277 124.312L311.897 124.618C313.787 124.96 314.687 125.788 314.687 127.156ZM324.232 127.156C324.232 129.028 322.774 130.18 320.236 130.18C317.716 130.18 316.222 128.938 316.042 126.886H317.788C317.86 128.074 318.814 128.812 320.272 128.812C321.55 128.812 322.396 128.362 322.396 127.462C322.396 126.67 321.91 126.328 320.722 126.094L319.174 125.806C317.41 125.464 316.42 124.564 316.42 123.124C316.42 121.45 317.878 120.28 320.092 120.28C322.378 120.28 323.926 121.504 324.088 123.466H322.342C322.234 122.314 321.388 121.648 320.11 121.648C318.958 121.648 318.184 122.134 318.184 122.962C318.184 123.736 318.67 124.096 319.822 124.312L321.442 124.618C323.332 124.96 324.232 125.788 324.232 127.156ZM328.431 118.246C328.431 118.93 327.891 119.452 327.117 119.452C326.343 119.452 325.785 118.93 325.785 118.246C325.785 117.544 326.343 117.04 327.117 117.04C327.891 117.04 328.431 117.544 328.431 118.246ZM328.035 130H326.217V120.46H328.035V130ZM339.667 125.23C339.667 128.092 338.011 130.18 335.437 130.18C334.087 130.18 332.935 129.496 332.251 128.29V130H330.559V117.076H332.377V122.098C333.043 120.928 334.141 120.28 335.437 120.28C337.993 120.28 339.667 122.332 339.667 125.23ZM337.777 125.23C337.777 123.07 336.643 121.882 335.077 121.882C333.565 121.882 332.377 123.052 332.377 125.194C332.377 127.3 333.529 128.56 335.077 128.56C336.643 128.56 337.777 127.354 337.777 125.23ZM343.346 130H341.51V117.076H343.346V130ZM349.793 130.18C347.039 130.18 345.185 128.182 345.185 125.176C345.185 122.35 347.111 120.28 349.739 120.28C352.583 120.28 354.473 122.584 354.149 125.68H347.039C347.183 127.624 348.155 128.758 349.757 128.758C351.107 128.758 352.043 128.02 352.349 126.778H354.149C353.681 128.902 352.043 130.18 349.793 130.18ZM349.703 121.648C348.245 121.648 347.255 122.692 347.057 124.474H352.223C352.133 122.71 351.179 121.648 349.703 121.648ZM365.622 130V128.524C365.028 129.586 363.966 130.18 362.562 130.18C360.582 130.18 359.286 129.046 359.286 127.3C359.286 125.428 360.78 124.456 363.624 124.456C364.182 124.456 364.632 124.474 365.406 124.564V123.862C365.406 122.494 364.668 121.72 363.408 121.72C362.076 121.72 361.266 122.512 361.212 123.844H359.556C359.646 121.702 361.176 120.28 363.408 120.28C365.766 120.28 367.134 121.612 367.134 123.88V130H365.622ZM361.014 127.246C361.014 128.236 361.752 128.884 362.922 128.884C364.452 128.884 365.406 127.93 365.406 126.472V125.698C364.704 125.608 364.2 125.59 363.732 125.59C361.914 125.59 361.014 126.13 361.014 127.246ZM371.383 124.618V130H369.565V120.46H371.257V122.044C371.905 120.982 372.985 120.28 374.299 120.28C376.261 120.28 377.557 121.54 377.557 123.826V130H375.739V124.438C375.739 122.8 375.019 121.882 373.669 121.882C372.427 121.882 371.383 122.926 371.383 124.618ZM379.287 125.23C379.287 122.332 380.943 120.28 383.517 120.28C384.795 120.28 385.911 120.928 386.577 122.098V117.076H388.395V130H386.703V128.29C386.019 129.496 384.867 130.18 383.517 130.18C380.943 130.18 379.287 128.092 379.287 125.23ZM381.177 125.23C381.177 127.354 382.293 128.56 383.877 128.56C385.425 128.56 386.577 127.3 386.577 125.194C386.577 123.052 385.389 121.882 383.877 121.882C382.293 121.882 381.177 123.07 381.177 125.23ZM400.462 130V128.524C399.868 129.586 398.806 130.18 397.402 130.18C395.422 130.18 394.126 129.046 394.126 127.3C394.126 125.428 395.62 124.456 398.464 124.456C399.022 124.456 399.472 124.474 400.246 124.564V123.862C400.246 122.494 399.508 121.72 398.248 121.72C396.916 121.72 396.106 122.512 396.052 123.844H394.396C394.486 121.702 396.016 120.28 398.248 120.28C400.606 120.28 401.974 121.612 401.974 123.88V130H400.462ZM395.854 127.246C395.854 128.236 396.592 128.884 397.762 128.884C399.292 128.884 400.246 127.93 400.246 126.472V125.698C399.544 125.608 399.04 125.59 398.572 125.59C396.754 125.59 395.854 126.13 395.854 127.246ZM406.999 130H405.181V122.008H403.075V120.46H405.181V119.758C405.181 117.922 406.171 116.914 407.971 116.914C408.511 116.914 408.943 117.004 409.303 117.148V118.624C409.015 118.498 408.691 118.462 408.367 118.462C407.503 118.462 406.999 118.858 406.999 119.776V120.46H409.663V122.008H406.999V130ZM414.258 130H412.44V122.008H410.334V120.46H412.44V119.758C412.44 117.922 413.43 116.914 415.23 116.914C415.77 116.914 416.202 117.004 416.562 117.148V118.624C416.274 118.498 415.95 118.462 415.626 118.462C414.762 118.462 414.258 118.858 414.258 119.776V120.46H416.922V122.008H414.258V130ZM422.041 130.18C419.341 130.18 417.361 128.056 417.361 125.23C417.361 122.404 419.341 120.28 422.041 120.28C424.741 120.28 426.721 122.404 426.721 125.23C426.721 128.056 424.741 130.18 422.041 130.18ZM422.041 128.578C423.607 128.578 424.849 127.318 424.849 125.23C424.849 123.142 423.607 121.9 422.041 121.9C420.475 121.9 419.251 123.142 419.251 125.23C419.251 127.318 420.475 128.578 422.041 128.578ZM430.392 125.122V130H428.574V120.46H430.266V122.476C430.932 121.162 432.372 120.334 433.938 120.334V122.224C431.886 122.116 430.392 123.016 430.392 125.122ZM434.658 125.23C434.658 122.332 436.314 120.28 438.888 120.28C440.166 120.28 441.282 120.928 441.948 122.098V117.076H443.766V130H442.074V128.29C441.39 129.496 440.238 130.18 438.888 130.18C436.314 130.18 434.658 128.092 434.658 125.23ZM436.548 125.23C436.548 127.354 437.664 128.56 439.248 128.56C440.796 128.56 441.948 127.3 441.948 125.194C441.948 123.052 440.76 121.882 439.248 121.882C437.664 121.882 436.548 123.07 436.548 125.23ZM452.071 130V128.524C451.477 129.586 450.415 130.18 449.011 130.18C447.031 130.18 445.735 129.046 445.735 127.3C445.735 125.428 447.229 124.456 450.073 124.456C450.631 124.456 451.081 124.474 451.855 124.564V123.862C451.855 122.494 451.117 121.72 449.857 121.72C448.525 121.72 447.715 122.512 447.661 123.844H446.005C446.095 121.702 447.625 120.28 449.857 120.28C452.215 120.28 453.583 121.612 453.583 123.88V130H452.071ZM447.463 127.246C447.463 128.236 448.201 128.884 449.371 128.884C450.901 128.884 451.855 127.93 451.855 126.472V125.698C451.153 125.608 450.649 125.59 450.181 125.59C448.363 125.59 447.463 126.13 447.463 127.246ZM465.122 125.23C465.122 128.092 463.466 130.18 460.892 130.18C459.542 130.18 458.39 129.496 457.706 128.29V130H456.014V117.076H457.832V122.098C458.498 120.928 459.596 120.28 460.892 120.28C463.448 120.28 465.122 122.332 465.122 125.23ZM463.232 125.23C463.232 123.07 462.098 121.882 460.532 121.882C459.02 121.882 457.832 123.052 457.832 125.194C457.832 127.3 458.984 128.56 460.532 128.56C462.098 128.56 463.232 127.354 463.232 125.23ZM468.801 130H466.965V117.076H468.801V130ZM475.248 130.18C472.494 130.18 470.64 128.182 470.64 125.176C470.64 122.35 472.566 120.28 475.194 120.28C478.038 120.28 479.928 122.584 479.604 125.68H472.494C472.638 127.624 473.61 128.758 475.212 128.758C476.562 128.758 477.498 128.02 477.804 126.778H479.604C479.136 128.902 477.498 130.18 475.248 130.18ZM475.158 121.648C473.7 121.648 472.71 122.692 472.512 124.474H477.678C477.588 122.71 476.634 121.648 475.158 121.648ZM483.74 129.226C483.74 130.936 482.39 132.268 480.41 132.304V131.278C481.58 131.242 482.372 130.612 482.48 129.73C482.318 129.784 482.21 129.802 482.084 129.802C481.4 129.802 480.896 129.244 480.896 128.578C480.896 127.804 481.472 127.3 482.21 127.3C483.2 127.3 483.74 128.02 483.74 129.226ZM495.489 130V128.524C494.895 129.586 493.833 130.18 492.429 130.18C490.449 130.18 489.153 129.046 489.153 127.3C489.153 125.428 490.647 124.456 493.491 124.456C494.049 124.456 494.499 124.474 495.273 124.564V123.862C495.273 122.494 494.535 121.72 493.275 121.72C491.943 121.72 491.133 122.512 491.079 123.844H489.423C489.513 121.702 491.043 120.28 493.275 120.28C495.633 120.28 497.001 121.612 497.001 123.88V130H495.489ZM490.881 127.246C490.881 128.236 491.619 128.884 492.789 128.884C494.319 128.884 495.273 127.93 495.273 126.472V125.698C494.571 125.608 494.067 125.59 493.599 125.59C491.781 125.59 490.881 126.13 490.881 127.246ZM501.268 130H499.432V117.076H501.268V130ZM505.627 130H503.791V117.076H505.627V130ZM512.147 130.18C509.447 130.18 507.467 128.056 507.467 125.23C507.467 122.404 509.447 120.28 512.147 120.28C514.847 120.28 516.827 122.404 516.827 125.23C516.827 128.056 514.847 130.18 512.147 130.18ZM512.147 128.578C513.713 128.578 514.955 127.318 514.955 125.23C514.955 123.142 513.713 121.9 512.147 121.9C510.581 121.9 509.357 123.142 509.357 125.23C509.357 127.318 510.581 128.578 512.147 128.578ZM526.353 130L524.193 122.908L522.015 130H520.179L517.425 120.46H519.207L521.133 127.408L523.293 120.46H525.093L527.217 127.426L529.143 120.46H530.943L528.171 130H526.353ZM534.64 118.246C534.64 118.93 534.1 119.452 533.326 119.452C532.552 119.452 531.994 118.93 531.994 118.246C531.994 117.544 532.552 117.04 533.326 117.04C534.1 117.04 534.64 117.544 534.64 118.246ZM534.244 130H532.426V120.46H534.244V130ZM538.586 124.618V130H536.768V120.46H538.46V122.044C539.108 120.982 540.188 120.28 541.502 120.28C543.464 120.28 544.76 121.54 544.76 123.826V130H542.942V124.438C542.942 122.8 542.222 121.882 540.872 121.882C539.63 121.882 538.586 122.926 538.586 124.618ZM550.99 133.672C548.488 133.672 546.868 132.34 546.76 130.18H548.524C548.632 131.512 549.496 132.232 550.972 132.232C552.61 132.232 553.474 131.35 553.474 129.712V127.984C552.934 129.136 551.854 129.802 550.558 129.802C548.182 129.802 546.49 127.84 546.49 125.032C546.49 122.188 548.11 120.28 550.504 120.28C551.872 120.28 552.952 120.946 553.6 122.152V120.46H555.292V129.676C555.292 132.178 553.69 133.672 550.99 133.672ZM548.326 125.032C548.326 127.012 549.298 128.218 550.882 128.218C552.43 128.218 553.474 126.976 553.474 125.086C553.474 123.106 552.448 121.846 550.882 121.846C549.316 121.846 548.326 123.07 548.326 125.032ZM41.18 147.46L36.41 160.474H34.43L35.798 156.874L32.036 147.46H33.998L36.77 154.732L39.344 147.46H41.18ZM46.1681 157.18C43.4681 157.18 41.4881 155.056 41.4881 152.23C41.4881 149.404 43.4681 147.28 46.1681 147.28C48.8681 147.28 50.8481 149.404 50.8481 152.23C50.8481 155.056 48.8681 157.18 46.1681 157.18ZM46.1681 155.578C47.7341 155.578 48.9761 154.318 48.9761 152.23C48.9761 150.142 47.7341 148.9 46.1681 148.9C44.6021 148.9 43.3781 150.142 43.3781 152.23C43.3781 154.318 44.6021 155.578 46.1681 155.578ZM58.6594 153.076V147.46H60.4774V157H58.7854V155.488C58.2814 156.478 57.1654 157.18 55.8694 157.18C53.9434 157.18 52.6114 156.046 52.6114 153.598V147.46H54.4294V153.238C54.4294 154.894 55.2574 155.578 56.4454 155.578C57.6694 155.578 58.6594 154.57 58.6594 153.076ZM72.1459 155.236V156.838C71.5879 157.09 71.1019 157.18 70.5259 157.18C68.7619 157.18 67.5379 156.226 67.5379 154.12V149.008H65.4319V147.46H67.5379V144.634H69.3559V147.46H72.2359V149.008H69.3559V153.706C69.3559 155.02 69.9859 155.488 70.9579 155.488C71.3899 155.488 71.7679 155.416 72.1459 155.236ZM77.7033 157.18C75.0033 157.18 73.0233 155.056 73.0233 152.23C73.0233 149.404 75.0033 147.28 77.7033 147.28C80.4033 147.28 82.3833 149.404 82.3833 152.23C82.3833 155.056 80.4033 157.18 77.7033 157.18ZM77.7033 155.578C79.2693 155.578 80.5113 154.318 80.5113 152.23C80.5113 150.142 79.2693 148.9 77.7033 148.9C76.1373 148.9 74.9133 150.142 74.9133 152.23C74.9133 154.318 76.1373 155.578 77.7033 155.578ZM87.3143 152.23C87.3143 149.332 88.9703 147.28 91.5443 147.28C92.8223 147.28 93.9383 147.928 94.6043 149.098V144.076H96.4223V157H94.7303V155.29C94.0463 156.496 92.8943 157.18 91.5443 157.18C88.9703 157.18 87.3143 155.092 87.3143 152.23ZM89.2043 152.23C89.2043 154.354 90.3203 155.56 91.9043 155.56C93.4523 155.56 94.6043 154.3 94.6043 152.194C94.6043 150.052 93.4163 148.882 91.9043 148.882C90.3203 148.882 89.2043 150.07 89.2043 152.23ZM101.163 145.246C101.163 145.93 100.623 146.452 99.8495 146.452C99.0755 146.452 98.5175 145.93 98.5175 145.246C98.5175 144.544 99.0755 144.04 99.8495 144.04C100.623 144.04 101.163 144.544 101.163 145.246ZM100.767 157H98.9495V147.46H100.767V157ZM111.211 147.46L107.629 157H105.649L102.067 147.46H104.029L106.675 154.912L109.357 147.46H111.211ZM116.127 157.18C113.373 157.18 111.519 155.182 111.519 152.176C111.519 149.35 113.445 147.28 116.073 147.28C118.917 147.28 120.807 149.584 120.483 152.68H113.373C113.517 154.624 114.489 155.758 116.091 155.758C117.441 155.758 118.377 155.02 118.683 153.778H120.483C120.015 155.902 118.377 157.18 116.127 157.18ZM116.037 148.648C114.579 148.648 113.589 149.692 113.391 151.474H118.557C118.467 149.71 117.513 148.648 116.037 148.648ZM124.234 152.122V157H122.416V147.46H124.108V149.476C124.774 148.162 126.214 147.334 127.78 147.334V149.224C125.728 149.116 124.234 150.016 124.234 152.122ZM136.779 154.156C136.779 156.028 135.321 157.18 132.783 157.18C130.263 157.18 128.769 155.938 128.589 153.886H130.335C130.407 155.074 131.361 155.812 132.819 155.812C134.097 155.812 134.943 155.362 134.943 154.462C134.943 153.67 134.457 153.328 133.269 153.094L131.721 152.806C129.957 152.464 128.967 151.564 128.967 150.124C128.967 148.45 130.425 147.28 132.639 147.28C134.925 147.28 136.473 148.504 136.635 150.466H134.889C134.781 149.314 133.935 148.648 132.657 148.648C131.505 148.648 130.731 149.134 130.731 149.962C130.731 150.736 131.217 151.096 132.369 151.312L133.989 151.618C135.879 151.96 136.779 152.788 136.779 154.156ZM140.978 145.246C140.978 145.93 140.438 146.452 139.664 146.452C138.89 146.452 138.332 145.93 138.332 145.246C138.332 144.544 138.89 144.04 139.664 144.04C140.438 144.04 140.978 144.544 140.978 145.246ZM140.582 157H138.764V147.46H140.582V157ZM145.788 157H143.97V149.008H141.864V147.46H143.97V146.758C143.97 144.922 144.96 143.914 146.76 143.914C147.3 143.914 147.732 144.004 148.092 144.148V145.624C147.804 145.498 147.48 145.462 147.156 145.462C146.292 145.462 145.788 145.858 145.788 146.776V147.46H148.452V149.008H145.788V157ZM157.846 147.46L153.076 160.474H151.096L152.464 156.874L148.702 147.46H150.664L153.436 154.732L156.01 147.46H157.846ZM170.819 147.46L166.049 160.474H164.069L165.437 156.874L161.675 147.46H163.637L166.409 154.732L168.983 147.46H170.819ZM175.807 157.18C173.107 157.18 171.127 155.056 171.127 152.23C171.127 149.404 173.107 147.28 175.807 147.28C178.507 147.28 180.487 149.404 180.487 152.23C180.487 155.056 178.507 157.18 175.807 157.18ZM175.807 155.578C177.373 155.578 178.615 154.318 178.615 152.23C178.615 150.142 177.373 148.9 175.807 148.9C174.241 148.9 173.017 150.142 173.017 152.23C173.017 154.318 174.241 155.578 175.807 155.578ZM188.298 153.076V147.46H190.116V157H188.424V155.488C187.92 156.478 186.804 157.18 185.508 157.18C183.582 157.18 182.25 156.046 182.25 153.598V147.46H184.068V153.238C184.068 154.894 184.896 155.578 186.084 155.578C187.308 155.578 188.298 154.57 188.298 153.076ZM194.459 152.122V157H192.641V147.46H194.333V149.476C194.999 148.162 196.439 147.334 198.005 147.334V149.224C195.953 149.116 194.459 150.016 194.459 152.122ZM212.313 152.23C212.313 155.11 210.657 157.18 208.101 157.18C206.805 157.18 205.707 156.532 205.023 155.38V160.474H203.205V147.46H204.897V149.206C205.581 147.982 206.751 147.28 208.101 147.28C210.639 147.28 212.313 149.35 212.313 152.23ZM210.423 152.23C210.423 150.088 209.289 148.882 207.723 148.882C206.211 148.882 205.023 150.088 205.023 152.23C205.023 154.336 206.193 155.56 207.723 155.56C209.289 155.56 210.423 154.372 210.423 152.23ZM218.152 157.18C215.452 157.18 213.472 155.056 213.472 152.23C213.472 149.404 215.452 147.28 218.152 147.28C220.852 147.28 222.832 149.404 222.832 152.23C222.832 155.056 220.852 157.18 218.152 157.18ZM218.152 155.578C219.718 155.578 220.96 154.318 220.96 152.23C220.96 150.142 219.718 148.9 218.152 148.9C216.586 148.9 215.362 150.142 215.362 152.23C215.362 154.318 216.586 155.578 218.152 155.578ZM226.504 152.122V157H224.686V147.46H226.378V149.476C227.044 148.162 228.484 147.334 230.05 147.334V149.224C227.998 149.116 226.504 150.016 226.504 152.122ZM237.451 155.236V156.838C236.893 157.09 236.407 157.18 235.831 157.18C234.067 157.18 232.843 156.226 232.843 154.12V149.008H230.737V147.46H232.843V144.634H234.661V147.46H237.541V149.008H234.661V153.706C234.661 155.02 235.291 155.488 236.263 155.488C236.695 155.488 237.073 155.416 237.451 155.236ZM242.133 157H240.315V149.008H238.209V147.46H240.315V146.758C240.315 144.922 241.305 143.914 243.105 143.914C243.645 143.914 244.077 144.004 244.437 144.148V145.624C244.149 145.498 243.825 145.462 243.501 145.462C242.637 145.462 242.133 145.858 242.133 146.776V147.46H244.797V149.008H242.133V157ZM249.916 157.18C247.216 157.18 245.236 155.056 245.236 152.23C245.236 149.404 247.216 147.28 249.916 147.28C252.616 147.28 254.596 149.404 254.596 152.23C254.596 155.056 252.616 157.18 249.916 157.18ZM249.916 155.578C251.482 155.578 252.724 154.318 252.724 152.23C252.724 150.142 251.482 148.9 249.916 148.9C248.35 148.9 247.126 150.142 247.126 152.23C247.126 154.318 248.35 155.578 249.916 155.578ZM258.285 157H256.449V144.076H258.285V157ZM263.023 145.246C263.023 145.93 262.483 146.452 261.709 146.452C260.935 146.452 260.377 145.93 260.377 145.246C260.377 144.544 260.935 144.04 261.709 144.04C262.483 144.04 263.023 144.544 263.023 145.246ZM262.627 157H260.809V147.46H262.627V157ZM269.147 157.18C266.447 157.18 264.467 155.056 264.467 152.23C264.467 149.404 266.447 147.28 269.147 147.28C271.847 147.28 273.827 149.404 273.827 152.23C273.827 155.056 271.847 157.18 269.147 157.18ZM269.147 155.578C270.713 155.578 271.955 154.318 271.955 152.23C271.955 150.142 270.713 148.9 269.147 148.9C267.581 148.9 266.357 150.142 266.357 152.23C266.357 154.318 267.581 155.578 269.147 155.578ZM287.326 157L285.166 149.908L282.988 157H281.152L278.398 147.46H280.18L282.106 154.408L284.266 147.46H286.066L288.19 154.426L290.116 147.46H291.916L289.144 157H287.326ZM295.613 145.246C295.613 145.93 295.073 146.452 294.299 146.452C293.525 146.452 292.967 145.93 292.967 145.246C292.967 144.544 293.525 144.04 294.299 144.04C295.073 144.04 295.613 144.544 295.613 145.246ZM295.217 157H293.399V147.46H295.217V157ZM303.122 155.236V156.838C302.564 157.09 302.078 157.18 301.502 157.18C299.738 157.18 298.514 156.226 298.514 154.12V149.008H296.408V147.46H298.514V144.634H300.332V147.46H303.212V149.008H300.332V153.706C300.332 155.02 300.962 155.488 301.934 155.488C302.366 155.488 302.744 155.416 303.122 155.236ZM306.766 151.618V157H304.948V144.076H306.766V148.99C307.396 147.964 308.368 147.28 309.682 147.28C311.644 147.28 312.939 148.54 312.939 150.826V157H311.122V151.438C311.122 149.8 310.402 148.882 309.052 148.882C307.81 148.882 306.766 149.926 306.766 151.618ZM319.35 157.18C316.65 157.18 314.67 155.056 314.67 152.23C314.67 149.404 316.65 147.28 319.35 147.28C322.05 147.28 324.03 149.404 324.03 152.23C324.03 155.056 322.05 157.18 319.35 157.18ZM319.35 155.578C320.916 155.578 322.158 154.318 322.158 152.23C322.158 150.142 320.916 148.9 319.35 148.9C317.784 148.9 316.56 150.142 316.56 152.23C316.56 154.318 317.784 155.578 319.35 155.578ZM331.841 153.076V147.46H333.659V157H331.967V155.488C331.463 156.478 330.347 157.18 329.051 157.18C327.125 157.18 325.793 156.046 325.793 153.598V147.46H327.611V153.238C327.611 154.894 328.439 155.578 329.627 155.578C330.851 155.578 331.841 154.57 331.841 153.076ZM341.566 155.236V156.838C341.008 157.09 340.522 157.18 339.946 157.18C338.182 157.18 336.958 156.226 336.958 154.12V149.008H334.852V147.46H336.958V144.634H338.776V147.46H341.656V149.008H338.776V153.706C338.776 155.02 339.406 155.488 340.378 155.488C340.81 155.488 341.188 155.416 341.566 155.236ZM352.535 155.236V156.838C351.977 157.09 351.491 157.18 350.915 157.18C349.151 157.18 347.927 156.226 347.927 154.12V149.008H345.821V147.46H347.927V144.634H349.745V147.46H352.625V149.008H349.745V153.706C349.745 155.02 350.375 155.488 351.347 155.488C351.779 155.488 352.157 155.416 352.535 155.236ZM356.178 151.618V157H354.36V144.076H356.178V148.99C356.808 147.964 357.78 147.28 359.094 147.28C361.056 147.28 362.352 148.54 362.352 150.826V157H360.534V151.438C360.534 149.8 359.814 148.882 358.464 148.882C357.222 148.882 356.178 149.926 356.178 151.618ZM368.69 157.18C365.936 157.18 364.082 155.182 364.082 152.176C364.082 149.35 366.008 147.28 368.636 147.28C371.48 147.28 373.37 149.584 373.046 152.68H365.936C366.08 154.624 367.052 155.758 368.654 155.758C370.004 155.758 370.94 155.02 371.246 153.778H373.046C372.578 155.902 370.94 157.18 368.69 157.18ZM368.6 148.648C367.142 148.648 366.152 149.692 365.954 151.474H371.12C371.03 149.71 370.076 148.648 368.6 148.648ZM380.558 151.618V157H378.74V144.076H380.558V148.99C381.188 147.964 382.16 147.28 383.474 147.28C385.436 147.28 386.732 148.54 386.732 150.826V157H384.914V151.438C384.914 149.8 384.194 148.882 382.844 148.882C381.602 148.882 380.558 149.926 380.558 151.618ZM391.361 145.246C391.361 145.93 390.821 146.452 390.047 146.452C389.273 146.452 388.715 145.93 388.715 145.246C388.715 144.544 389.273 144.04 390.047 144.04C390.821 144.04 391.361 144.544 391.361 145.246ZM390.965 157H389.147V147.46H390.965V157ZM397.305 160.672C394.803 160.672 393.183 159.34 393.075 157.18H394.839C394.947 158.512 395.811 159.232 397.287 159.232C398.925 159.232 399.789 158.35 399.789 156.712V154.984C399.249 156.136 398.169 156.802 396.873 156.802C394.497 156.802 392.805 154.84 392.805 152.032C392.805 149.188 394.425 147.28 396.819 147.28C398.187 147.28 399.267 147.946 399.915 149.152V147.46H401.607V156.676C401.607 159.178 400.005 160.672 397.305 160.672ZM394.641 152.032C394.641 154.012 395.613 155.218 397.197 155.218C398.745 155.218 399.789 153.976 399.789 152.086C399.789 150.106 398.763 148.846 397.197 148.846C395.631 148.846 394.641 150.07 394.641 152.032ZM405.941 151.618V157H404.123V144.076H405.941V148.99C406.571 147.964 407.543 147.28 408.857 147.28C410.819 147.28 412.115 148.54 412.115 150.826V157H410.297V151.438C410.297 149.8 409.577 148.882 408.227 148.882C406.985 148.882 405.941 149.926 405.941 151.618ZM424.249 153.076V147.46H426.067V157H424.375V155.488C423.871 156.478 422.755 157.18 421.459 157.18C419.533 157.18 418.201 156.046 418.201 153.598V147.46H420.019V153.238C420.019 154.894 420.847 155.578 422.035 155.578C423.259 155.578 424.249 154.57 424.249 153.076ZM437.7 152.23C437.7 155.11 436.044 157.18 433.488 157.18C432.192 157.18 431.094 156.532 430.41 155.38V160.474H428.592V147.46H430.284V149.206C430.968 147.982 432.138 147.28 433.488 147.28C436.026 147.28 437.7 149.35 437.7 152.23ZM435.81 152.23C435.81 150.088 434.676 148.882 433.11 148.882C431.598 148.882 430.41 150.088 430.41 152.23C430.41 154.336 431.58 155.56 433.11 155.56C434.676 155.56 435.81 154.372 435.81 152.23ZM442.19 157H440.372V149.008H438.266V147.46H440.372V146.758C440.372 144.922 441.362 143.914 443.162 143.914C443.702 143.914 444.134 144.004 444.494 144.148V145.624C444.206 145.498 443.882 145.462 443.558 145.462C442.694 145.462 442.19 145.858 442.19 146.776V147.46H444.854V149.008H442.19V157ZM448.058 152.122V157H446.24V147.46H447.932V149.476C448.598 148.162 450.038 147.334 451.604 147.334V149.224C449.552 149.116 448.058 150.016 448.058 152.122ZM457.004 157.18C454.304 157.18 452.324 155.056 452.324 152.23C452.324 149.404 454.304 147.28 457.004 147.28C459.704 147.28 461.684 149.404 461.684 152.23C461.684 155.056 459.704 157.18 457.004 157.18ZM457.004 155.578C458.57 155.578 459.812 154.318 459.812 152.23C459.812 150.142 458.57 148.9 457.004 148.9C455.438 148.9 454.214 150.142 454.214 152.23C454.214 154.318 455.438 155.578 457.004 155.578ZM465.355 151.618V157H463.537V147.46H465.229V149.044C465.877 147.982 466.957 147.28 468.271 147.28C470.233 147.28 471.529 148.54 471.529 150.826V157H469.711V151.438C469.711 149.8 468.991 148.882 467.641 148.882C466.399 148.882 465.355 149.926 465.355 151.618ZM479.29 155.236V156.838C478.732 157.09 478.246 157.18 477.67 157.18C475.906 157.18 474.682 156.226 474.682 154.12V149.008H472.576V147.46H474.682V144.634H476.5V147.46H479.38V149.008H476.5V153.706C476.5 155.02 477.13 155.488 478.102 155.488C478.534 155.488 478.912 155.416 479.29 155.236ZM488.639 157.198C486.029 157.198 484.193 155.146 484.193 152.23C484.193 149.35 486.065 147.28 488.639 147.28C490.997 147.28 492.707 148.846 493.049 151.33H491.141C490.943 149.8 489.989 148.882 488.657 148.882C487.091 148.882 486.065 150.214 486.065 152.23C486.065 154.264 487.091 155.578 488.657 155.578C490.007 155.578 490.943 154.678 491.159 153.13H493.049C492.725 155.65 491.033 157.198 488.639 157.198ZM498.787 157.18C496.087 157.18 494.107 155.056 494.107 152.23C494.107 149.404 496.087 147.28 498.787 147.28C501.487 147.28 503.467 149.404 503.467 152.23C503.467 155.056 501.487 157.18 498.787 157.18ZM498.787 155.578C500.353 155.578 501.595 154.318 501.595 152.23C501.595 150.142 500.353 148.9 498.787 148.9C497.221 148.9 495.997 150.142 495.997 152.23C495.997 154.318 497.221 155.578 498.787 155.578ZM512.881 154.156C512.881 156.028 511.423 157.18 508.885 157.18C506.365 157.18 504.871 155.938 504.691 153.886H506.437C506.509 155.074 507.463 155.812 508.921 155.812C510.199 155.812 511.045 155.362 511.045 154.462C511.045 153.67 510.559 153.328 509.371 153.094L507.823 152.806C506.059 152.464 505.069 151.564 505.069 150.124C505.069 148.45 506.527 147.28 508.741 147.28C511.027 147.28 512.575 148.504 512.737 150.466H510.991C510.883 149.314 510.037 148.648 508.759 148.648C507.607 148.648 506.833 149.134 506.833 149.962C506.833 150.736 507.319 151.096 508.471 151.312L510.091 151.618C511.981 151.96 512.881 152.788 512.881 154.156ZM520.124 155.236V156.838C519.566 157.09 519.08 157.18 518.504 157.18C516.74 157.18 515.516 156.226 515.516 154.12V149.008H513.41V147.46H515.516V144.634H517.334V147.46H520.214V149.008H517.334V153.706C517.334 155.02 517.964 155.488 518.936 155.488C519.368 155.488 519.746 155.416 520.124 155.236ZM529.474 154.156C529.474 156.028 528.016 157.18 525.478 157.18C522.958 157.18 521.464 155.938 521.284 153.886H523.03C523.102 155.074 524.056 155.812 525.514 155.812C526.792 155.812 527.638 155.362 527.638 154.462C527.638 153.67 527.152 153.328 525.964 153.094L524.416 152.806C522.652 152.464 521.662 151.564 521.662 150.124C521.662 148.45 523.12 147.28 525.334 147.28C527.62 147.28 529.168 148.504 529.33 150.466H527.584C527.476 149.314 526.63 148.648 525.352 148.648C524.2 148.648 523.426 149.134 523.426 149.962C523.426 150.736 523.912 151.096 525.064 151.312L526.684 151.618C528.574 151.96 529.474 152.788 529.474 154.156ZM533.925 155.704C533.925 156.514 533.367 157.09 532.539 157.09C531.729 157.09 531.153 156.514 531.153 155.704C531.153 154.858 531.729 154.282 532.539 154.282C533.367 154.282 533.925 154.858 533.925 155.704Z" fill="#1C2B31"/>
<rect y="204" width="1320" height="95" rx="8" fill="#E3EAEC"/>
<path d="M45.368 257.832V261H33.776V243.768H45.2V246.936H37.424V250.56H44.48V253.704H37.424V257.832H45.368ZM50.4221 261H46.7021L51.0221 254.472L46.9901 248.184H50.8301L53.4461 252.6L56.0861 248.184H59.5901L55.6061 254.592L59.9021 261H56.1101L53.2301 256.392L50.4221 261ZM74.4519 254.592C74.4519 258.384 72.2199 261.24 68.7639 261.24C67.2519 261.24 65.9559 260.592 64.9959 259.344V265.632H61.6599V248.184H64.7319V250.056C65.7159 248.688 67.1319 247.944 68.7639 247.944C72.2199 247.944 74.4519 250.824 74.4519 254.592ZM71.0199 254.592C71.0199 252.192 69.6519 250.896 68.0199 250.896C66.3879 250.896 65.0199 252.168 65.0199 254.592C65.0199 257.016 66.3879 258.264 68.0199 258.264C69.6519 258.264 71.0199 257.04 71.0199 254.592ZM82.1576 261.216C78.3176 261.216 75.7496 258.552 75.7496 254.544C75.7496 250.728 78.4136 247.944 82.1096 247.944C86.1656 247.944 88.8536 251.232 88.2536 255.408H79.1576C79.3736 257.496 80.3816 258.648 82.0856 258.648C83.5496 258.648 84.5336 257.928 84.9176 256.656H88.2296C87.5096 259.56 85.2776 261.216 82.1576 261.216ZM82.0376 250.392C80.4776 250.392 79.4936 251.4 79.2056 253.296H84.7256C84.6296 251.52 83.6216 250.392 82.0376 250.392ZM93.824 254.784V261H90.488V248.184H93.56V250.656C94.496 249.024 96.488 248.04 98.552 248.04V251.496C95.72 251.28 93.824 251.952 93.824 254.784ZM109.073 257.76V260.664C108.257 261.072 107.489 261.24 106.505 261.24C103.865 261.24 102.209 259.728 102.209 256.848V251.04H99.6172V248.184H102.209V244.392H105.521V248.184H109.193V251.04H105.521V256.08C105.521 257.568 106.193 258.168 107.393 258.168C108.017 258.168 108.593 258.024 109.073 257.76ZM114.59 261H111.23V243.768H114.59V261ZM129.126 248.184L122.886 265.632H119.262L121.086 260.856L116.046 248.184H119.646L122.862 256.968L125.79 248.184H129.126ZM149.117 255.648C149.117 258.936 146.477 261.24 142.157 261.24C137.813 261.24 135.101 258.912 134.837 255.264H138.533C138.629 257.16 139.853 258.384 142.085 258.384C143.933 258.384 145.253 257.568 145.253 256.176C145.253 255.096 144.413 254.448 142.949 254.16L140.117 253.608C137.501 253.104 135.485 251.688 135.485 248.832C135.485 245.76 138.197 243.552 141.917 243.552C145.781 243.552 148.613 245.808 148.853 249.408H145.157C145.037 247.608 143.789 246.384 141.965 246.384C140.189 246.384 139.181 247.392 139.181 248.592C139.181 249.768 140.261 250.272 141.509 250.512L144.461 251.112C147.485 251.712 149.117 253.104 149.117 255.648ZM157.087 261.216C153.247 261.216 150.679 258.552 150.679 254.544C150.679 250.728 153.343 247.944 157.039 247.944C161.095 247.944 163.783 251.232 163.183 255.408H154.087C154.303 257.496 155.311 258.648 157.015 258.648C158.479 258.648 159.463 257.928 159.847 256.656H163.159C162.439 259.56 160.207 261.216 157.087 261.216ZM156.967 250.392C155.407 250.392 154.423 251.4 154.135 253.296H159.655C159.559 251.52 158.551 250.392 156.967 250.392ZM168.778 261H165.418V243.768H168.778V261ZM177.337 261.216C173.497 261.216 170.929 258.552 170.929 254.544C170.929 250.728 173.593 247.944 177.289 247.944C181.345 247.944 184.033 251.232 183.433 255.408H174.337C174.553 257.496 175.561 258.648 177.265 258.648C178.729 258.648 179.713 257.928 180.097 256.656H183.409C182.689 259.56 180.457 261.216 177.337 261.216ZM177.217 250.392C175.657 250.392 174.673 251.4 174.385 253.296H179.905C179.809 251.52 178.801 250.392 177.217 250.392ZM190.833 261.24C187.137 261.24 184.593 258.504 184.593 254.592C184.593 250.752 187.233 247.944 190.833 247.944C194.169 247.944 196.641 250.2 197.049 253.656H193.545C193.377 251.952 192.345 250.896 190.833 250.896C189.105 250.896 188.001 252.312 188.001 254.592C188.001 256.896 189.081 258.288 190.833 258.288C192.369 258.288 193.353 257.28 193.545 255.528H197.049C196.665 259.056 194.265 261.24 190.833 261.24ZM207.159 257.76V260.664C206.343 261.072 205.575 261.24 204.591 261.24C201.951 261.24 200.295 259.728 200.295 256.848V251.04H197.703V248.184H200.295V244.392H203.607V248.184H207.279V251.04H203.607V256.08C203.607 257.568 204.279 258.168 205.479 258.168C206.103 258.168 206.679 258.024 207.159 257.76ZM214.603 261.216C210.763 261.216 208.195 258.552 208.195 254.544C208.195 250.728 210.859 247.944 214.555 247.944C218.611 247.944 221.299 251.232 220.699 255.408H211.603C211.819 257.496 212.827 258.648 214.531 258.648C215.995 258.648 216.979 257.928 217.363 256.656H220.675C219.955 259.56 217.723 261.216 214.603 261.216ZM214.483 250.392C212.923 250.392 211.939 251.4 211.651 253.296H217.171C217.075 251.52 216.067 250.392 214.483 250.392ZM221.859 254.592C221.859 250.8 224.091 247.944 227.547 247.944C229.083 247.944 230.379 248.616 231.339 249.84V243.768H234.651V261H231.603V259.152C230.595 260.496 229.203 261.24 227.547 261.24C224.091 261.24 221.859 258.336 221.859 254.592ZM225.291 254.592C225.291 256.992 226.659 258.264 228.291 258.264C229.947 258.264 231.315 256.968 231.315 254.544C231.315 252.12 229.923 250.896 228.291 250.896C226.659 250.896 225.291 252.144 225.291 254.592ZM249.292 255.384H246.58V261H242.932V243.768H249.292C253.492 243.768 256.108 245.76 256.108 249.504C256.108 253.248 253.492 255.384 249.292 255.384ZM249.268 246.84H246.58V252.312H249.268C251.332 252.312 252.484 251.232 252.484 249.528C252.484 247.824 251.332 246.84 249.268 246.84ZM261.637 254.784V261H258.301V248.184H261.373V250.656C262.309 249.024 264.301 248.04 266.365 248.04V251.496C263.533 251.28 261.637 251.952 261.637 254.784ZM273.668 261.24C269.948 261.24 267.164 258.312 267.164 254.592C267.164 250.848 269.948 247.944 273.668 247.944C277.388 247.944 280.172 250.848 280.172 254.592C280.172 258.312 277.388 261.24 273.668 261.24ZM273.668 258.288C275.324 258.288 276.74 256.968 276.74 254.592C276.74 252.216 275.324 250.92 273.668 250.92C272.012 250.92 270.596 252.216 270.596 254.592C270.596 256.968 272.012 258.288 273.668 258.288ZM295.093 254.592C295.093 258.384 292.861 261.24 289.405 261.24C287.893 261.24 286.597 260.592 285.637 259.344V265.632H282.301V248.184H285.373V250.056C286.357 248.688 287.773 247.944 289.405 247.944C292.861 247.944 295.093 250.824 295.093 254.592ZM291.661 254.592C291.661 252.192 290.293 250.896 288.661 250.896C287.029 250.896 285.661 252.168 285.661 254.592C285.661 257.016 287.029 258.264 288.661 258.264C290.293 258.264 291.661 257.04 291.661 254.592ZM302.798 261.216C298.958 261.216 296.39 258.552 296.39 254.544C296.39 250.728 299.054 247.944 302.75 247.944C306.806 247.944 309.494 251.232 308.894 255.408H299.798C300.014 257.496 301.022 258.648 302.726 258.648C304.19 258.648 305.174 257.928 305.558 256.656H308.87C308.15 259.56 305.918 261.216 302.798 261.216ZM302.678 250.392C301.118 250.392 300.134 251.4 299.846 253.296H305.366C305.27 251.52 304.262 250.392 302.678 250.392ZM314.465 254.784V261H311.129V248.184H314.201V250.656C315.137 249.024 317.129 248.04 319.193 248.04V251.496C316.361 251.28 314.465 251.952 314.465 254.784ZM329.714 257.76V260.664C328.898 261.072 328.13 261.24 327.146 261.24C324.506 261.24 322.85 259.728 322.85 256.848V251.04H320.258V248.184H322.85V244.392H326.162V248.184H329.834V251.04H326.162V256.08C326.162 257.568 326.834 258.168 328.034 258.168C328.658 258.168 329.234 258.024 329.714 257.76ZM335.735 245.208C335.735 246.336 334.823 247.176 333.503 247.176C332.207 247.176 331.295 246.336 331.295 245.208C331.295 244.032 332.207 243.192 333.503 243.192C334.823 243.192 335.735 244.032 335.735 245.208ZM335.207 261H331.871V248.184H335.207V261ZM343.743 261.216C339.904 261.216 337.336 258.552 337.336 254.544C337.336 250.728 340 247.944 343.696 247.944C347.752 247.944 350.44 251.232 349.84 255.408H340.744C340.96 257.496 341.968 258.648 343.672 258.648C345.136 258.648 346.12 257.928 346.504 256.656H349.816C349.096 259.56 346.864 261.216 343.743 261.216ZM343.624 250.392C342.064 250.392 341.08 251.4 340.792 253.296H346.312C346.216 251.52 345.208 250.392 343.624 250.392ZM362.898 256.896C362.898 259.584 360.858 261.24 357.21 261.24C353.562 261.24 351.522 259.488 351.258 256.632H354.45C354.474 257.952 355.602 258.792 357.258 258.792C358.554 258.792 359.538 258.384 359.538 257.472C359.538 256.656 359.01 256.32 357.786 256.08L355.482 255.648C353.178 255.24 351.786 253.968 351.786 251.976C351.786 249.6 353.826 247.944 357.018 247.944C360.234 247.944 362.442 249.648 362.682 252.408H359.49C359.37 251.16 358.434 250.392 357.018 250.392C355.794 250.392 354.978 250.848 354.978 251.664C354.978 252.432 355.506 252.744 356.658 252.96L359.13 253.416C361.626 253.896 362.898 255.048 362.898 256.896Z" fill="#1C2B31"/>
<path d="M1260.1 252.912C1260.1 247.536 1262.36 244.536 1266.37 244.536C1270.38 244.536 1272.66 247.536 1272.66 252.912C1272.66 258.264 1270.42 261.24 1266.37 261.24C1262.31 261.24 1260.1 258.264 1260.1 252.912ZM1263.54 252.912C1263.54 256.392 1264.5 258.264 1266.37 258.264C1268.22 258.264 1269.22 256.392 1269.22 252.912C1269.22 249.408 1268.22 247.512 1266.37 247.512C1264.54 247.512 1263.54 249.408 1263.54 252.912ZM1286.22 258.024V261H1274.89V259.104L1279.81 254.064C1281.69 252.144 1282.48 251.136 1282.48 249.72C1282.48 248.4 1281.59 247.512 1280.17 247.512C1278.61 247.512 1277.65 248.496 1277.65 250.08H1274.41C1274.41 246.84 1276.86 244.536 1280.34 244.536C1283.58 244.536 1285.96 246.576 1285.96 249.312C1285.96 251.28 1285.24 252.528 1282.41 255.384L1279.96 258.024H1286.22Z" fill="#1C2B31" fill-opacity="0.2"/>
<rect y="307" width="1320" height="95" rx="8" fill="#D3DEE2"/>
<path d="M41.48 364H37.832V350.056H32.408V346.768H46.928V350.056H41.48V364ZM51.3084 357.784V364H47.9724V351.184H51.0444V353.656C51.9804 352.024 53.9724 351.04 56.0364 351.04V354.496C53.2044 354.28 51.3084 354.952 51.3084 357.784ZM65.4013 364V362.416C64.5613 363.616 63.2893 364.24 61.5373 364.24C58.8733 364.24 57.0973 362.68 57.0973 360.28C57.0973 357.784 59.1133 356.44 62.8573 356.44C63.5773 356.44 64.2013 356.488 64.9933 356.584V355.816C64.9933 354.376 64.1773 353.536 62.7853 353.536C61.3453 353.536 60.4813 354.376 60.3613 355.816H57.3613C57.5533 352.864 59.6893 350.944 62.7853 350.944C66.1453 350.944 68.1133 352.792 68.1133 355.936V364H65.4013ZM60.2413 360.184C60.2413 361.264 61.0093 361.936 62.2573 361.936C63.9613 361.936 64.9933 361 64.9933 359.512V358.6C64.2013 358.48 63.6493 358.432 63.0733 358.432C61.1773 358.432 60.2413 359.032 60.2413 360.184ZM74.324 357.016V364H70.988V351.184H74.06V353.008C74.996 351.736 76.316 350.944 77.996 350.944C80.564 350.944 82.34 352.624 82.34 355.72V364H79.028V356.848C79.028 354.952 78.284 353.896 76.772 353.896C75.452 353.896 74.324 354.952 74.324 357.016ZM96.0386 359.896C96.0386 362.584 93.9986 364.24 90.3506 364.24C86.7026 364.24 84.6626 362.488 84.3986 359.632H87.5906C87.6146 360.952 88.7426 361.792 90.3986 361.792C91.6946 361.792 92.6786 361.384 92.6786 360.472C92.6786 359.656 92.1506 359.32 90.9266 359.08L88.6226 358.648C86.3186 358.24 84.9266 356.968 84.9266 354.976C84.9266 352.6 86.9666 350.944 90.1586 350.944C93.3746 350.944 95.5826 352.648 95.8226 355.408H92.6306C92.5106 354.16 91.5746 353.392 90.1586 353.392C88.9346 353.392 88.1186 353.848 88.1186 354.664C88.1186 355.432 88.6466 355.744 89.7986 355.96L92.2706 356.416C94.7666 356.896 96.0386 358.048 96.0386 359.896ZM111.108 357.592C111.108 361.384 108.876 364.24 105.42 364.24C103.908 364.24 102.612 363.592 101.652 362.344V368.632H98.3161V351.184H101.388V353.056C102.372 351.688 103.788 350.944 105.42 350.944C108.876 350.944 111.108 353.824 111.108 357.592ZM107.676 357.592C107.676 355.192 106.308 353.896 104.676 353.896C103.044 353.896 101.676 355.168 101.676 357.592C101.676 360.016 103.044 361.264 104.676 361.264C106.308 361.264 107.676 360.04 107.676 357.592ZM120.878 364V362.416C120.038 363.616 118.766 364.24 117.014 364.24C114.35 364.24 112.574 362.68 112.574 360.28C112.574 357.784 114.59 356.44 118.334 356.44C119.054 356.44 119.678 356.488 120.47 356.584V355.816C120.47 354.376 119.654 353.536 118.262 353.536C116.822 353.536 115.958 354.376 115.838 355.816H112.838C113.03 352.864 115.166 350.944 118.262 350.944C121.622 350.944 123.59 352.792 123.59 355.936V364H120.878ZM115.718 360.184C115.718 361.264 116.486 361.936 117.734 361.936C119.438 361.936 120.47 361 120.47 359.512V358.6C119.678 358.48 119.126 358.432 118.55 358.432C116.654 358.432 115.718 359.032 115.718 360.184ZM129.801 357.784V364H126.465V351.184H129.537V353.656C130.473 352.024 132.465 351.04 134.529 351.04V354.496C131.697 354.28 129.801 354.952 129.801 357.784ZM141.736 364.216C137.896 364.216 135.328 361.552 135.328 357.544C135.328 353.728 137.992 350.944 141.688 350.944C145.744 350.944 148.432 354.232 147.832 358.408H138.736C138.952 360.496 139.96 361.648 141.664 361.648C143.128 361.648 144.112 360.928 144.496 359.656H147.808C147.088 362.56 144.856 364.216 141.736 364.216ZM141.616 353.392C140.056 353.392 139.072 354.4 138.784 356.296H144.304C144.208 354.52 143.2 353.392 141.616 353.392ZM153.402 357.016V364H150.066V351.184H153.138V353.008C154.074 351.736 155.394 350.944 157.074 350.944C159.642 350.944 161.418 352.624 161.418 355.72V364H158.106V356.848C158.106 354.952 157.362 353.896 155.85 353.896C154.53 353.896 153.402 354.952 153.402 357.016ZM172.167 360.76V363.664C171.351 364.072 170.583 364.24 169.599 364.24C166.959 364.24 165.303 362.728 165.303 359.848V354.04H162.711V351.184H165.303V347.392H168.615V351.184H172.287V354.04H168.615V359.08C168.615 360.568 169.287 361.168 170.487 361.168C171.111 361.168 171.687 361.024 172.167 360.76ZM186.972 364V362.416C186.132 363.616 184.86 364.24 183.108 364.24C180.444 364.24 178.668 362.68 178.668 360.28C178.668 357.784 180.684 356.44 184.428 356.44C185.148 356.44 185.772 356.488 186.564 356.584V355.816C186.564 354.376 185.748 353.536 184.356 353.536C182.916 353.536 182.052 354.376 181.932 355.816H178.932C179.124 352.864 181.26 350.944 184.356 350.944C187.716 350.944 189.684 352.792 189.684 355.936V364H186.972ZM181.812 360.184C181.812 361.264 182.58 361.936 183.828 361.936C185.532 361.936 186.564 361 186.564 359.512V358.6C185.772 358.48 185.22 358.432 184.644 358.432C182.748 358.432 181.812 359.032 181.812 360.184ZM195.894 357.016V364H192.558V351.184H195.63V353.008C196.566 351.736 197.886 350.944 199.566 350.944C202.134 350.944 203.91 352.624 203.91 355.72V364H200.598V356.848C200.598 354.952 199.854 353.896 198.342 353.896C197.022 353.896 195.894 354.952 195.894 357.016ZM205.945 357.592C205.945 353.8 208.177 350.944 211.633 350.944C213.169 350.944 214.465 351.616 215.425 352.84V346.768H218.737V364H215.689V362.152C214.681 363.496 213.289 364.24 211.633 364.24C208.177 364.24 205.945 361.336 205.945 357.592ZM209.377 357.592C209.377 359.992 210.745 361.264 212.377 361.264C214.033 361.264 215.401 359.968 215.401 357.544C215.401 355.12 214.009 353.896 212.377 353.896C210.745 353.896 209.377 355.144 209.377 357.592ZM240.242 358.648C240.242 361.936 237.602 364.24 233.282 364.24C228.938 364.24 226.226 361.912 225.962 358.264H229.658C229.754 360.16 230.978 361.384 233.21 361.384C235.058 361.384 236.378 360.568 236.378 359.176C236.378 358.096 235.538 357.448 234.074 357.16L231.242 356.608C228.626 356.104 226.61 354.688 226.61 351.832C226.61 348.76 229.322 346.552 233.042 346.552C236.906 346.552 239.738 348.808 239.978 352.408H236.282C236.162 350.608 234.914 349.384 233.09 349.384C231.314 349.384 230.306 350.392 230.306 351.592C230.306 352.768 231.386 353.272 232.634 353.512L235.586 354.112C238.61 354.712 240.242 356.104 240.242 358.648ZM248.212 364.216C244.372 364.216 241.804 361.552 241.804 357.544C241.804 353.728 244.468 350.944 248.164 350.944C252.22 350.944 254.908 354.232 254.308 358.408H245.212C245.428 360.496 246.436 361.648 248.14 361.648C249.604 361.648 250.588 360.928 250.972 359.656H254.284C253.564 362.56 251.332 364.216 248.212 364.216ZM248.092 353.392C246.532 353.392 245.548 354.4 245.26 356.296H250.78C250.684 354.52 249.676 353.392 248.092 353.392ZM261.708 364.24C258.012 364.24 255.468 361.504 255.468 357.592C255.468 353.752 258.108 350.944 261.708 350.944C265.044 350.944 267.516 353.2 267.924 356.656H264.42C264.252 354.952 263.22 353.896 261.708 353.896C259.98 353.896 258.876 355.312 258.876 357.592C258.876 359.896 259.956 361.288 261.708 361.288C263.244 361.288 264.228 360.28 264.42 358.528H267.924C267.54 362.056 265.14 364.24 261.708 364.24ZM277.866 358.6V351.184H281.178V364H278.13V362.32C277.434 363.448 276.018 364.24 274.386 364.24C271.818 364.24 269.946 362.68 269.946 359.344V351.184H273.282V358.696C273.282 360.496 274.17 361.288 275.514 361.288C276.714 361.288 277.866 360.328 277.866 358.6ZM287.512 357.784V364H284.176V351.184H287.248V353.656C288.184 352.024 290.176 351.04 292.24 351.04V354.496C289.408 354.28 287.512 354.952 287.512 357.784ZM299.447 364.216C295.607 364.216 293.039 361.552 293.039 357.544C293.039 353.728 295.703 350.944 299.399 350.944C303.455 350.944 306.143 354.232 305.543 358.408H296.447C296.663 360.496 297.671 361.648 299.375 361.648C300.839 361.648 301.823 360.928 302.207 359.656H305.519C304.799 362.56 302.567 364.216 299.447 364.216ZM299.327 353.392C297.767 353.392 296.783 354.4 296.495 356.296H302.015C301.919 354.52 300.911 353.392 299.327 353.392ZM316.729 364H313.081V346.768H316.729V364ZM323.301 357.016V364H319.965V351.184H323.037V353.008C323.973 351.736 325.293 350.944 326.973 350.944C329.541 350.944 331.317 352.624 331.317 355.72V364H328.005V356.848C328.005 354.952 327.261 353.896 325.749 353.896C324.429 353.896 323.301 354.952 323.301 357.016ZM345.266 351.184L340.562 364H336.914L332.186 351.184H335.786L338.834 360.208L341.906 351.184H345.266ZM351.853 364.216C348.013 364.216 345.445 361.552 345.445 357.544C345.445 353.728 348.109 350.944 351.805 350.944C355.861 350.944 358.549 354.232 357.949 358.408H348.853C349.069 360.496 350.077 361.648 351.781 361.648C353.245 361.648 354.229 360.928 354.613 359.656H357.925C357.205 362.56 354.973 364.216 351.853 364.216ZM351.733 353.392C350.173 353.392 349.189 354.4 348.901 356.296H354.421C354.325 354.52 353.317 353.392 351.733 353.392ZM371.007 359.896C371.007 362.584 368.967 364.24 365.319 364.24C361.671 364.24 359.631 362.488 359.367 359.632H362.559C362.583 360.952 363.711 361.792 365.367 361.792C366.663 361.792 367.647 361.384 367.647 360.472C367.647 359.656 367.119 359.32 365.895 359.08L363.591 358.648C361.287 358.24 359.895 356.968 359.895 354.976C359.895 352.6 361.935 350.944 365.127 350.944C368.343 350.944 370.551 352.648 370.791 355.408H367.599C367.479 354.16 366.543 353.392 365.127 353.392C363.903 353.392 363.087 353.848 363.087 354.664C363.087 355.432 363.615 355.744 364.767 355.96L367.239 356.416C369.735 356.896 371.007 358.048 371.007 359.896ZM380.995 360.76V363.664C380.179 364.072 379.411 364.24 378.427 364.24C375.787 364.24 374.131 362.728 374.131 359.848V354.04H371.539V351.184H374.131V347.392H377.443V351.184H381.115V354.04H377.443V359.08C377.443 360.568 378.115 361.168 379.315 361.168C379.939 361.168 380.515 361.024 380.995 360.76ZM387.016 348.208C387.016 349.336 386.104 350.176 384.784 350.176C383.488 350.176 382.576 349.336 382.576 348.208C382.576 347.032 383.488 346.192 384.784 346.192C386.104 346.192 387.016 347.032 387.016 348.208ZM386.488 364H383.152V351.184H386.488V364ZM392.793 357.016V364H389.457V351.184H392.529V353.008C393.465 351.736 394.785 350.944 396.465 350.944C399.033 350.944 400.809 352.624 400.809 355.72V364H397.497V356.848C397.497 354.952 396.753 353.896 395.241 353.896C393.921 353.896 392.793 354.952 392.793 357.016ZM409.131 368.872C405.675 368.872 403.371 367 403.227 364.048H406.443C406.587 365.512 407.523 366.28 409.107 366.28C410.955 366.28 411.915 365.296 411.915 363.448V361.576C411.219 362.8 409.899 363.52 408.339 363.52C405.195 363.52 402.843 360.856 402.843 357.232C402.843 353.512 405.051 350.944 408.219 350.944C409.947 350.944 411.243 351.616 412.179 352.936V351.184H415.227V363.4C415.227 366.808 412.923 368.872 409.131 368.872ZM406.179 357.232C406.179 359.32 407.259 360.64 408.987 360.64C410.739 360.64 411.891 359.272 411.891 357.256C411.891 355.168 410.739 353.824 408.987 353.824C407.283 353.824 406.179 355.144 406.179 357.232Z" fill="#1C2B31"/>
<path d="M1260.1 355.912C1260.1 350.536 1262.36 347.536 1266.37 347.536C1270.38 347.536 1272.66 350.536 1272.66 355.912C1272.66 361.264 1270.42 364.24 1266.37 364.24C1262.31 364.24 1260.1 361.264 1260.1 355.912ZM1263.54 355.912C1263.54 359.392 1264.5 361.264 1266.37 361.264C1268.22 361.264 1269.22 359.392 1269.22 355.912C1269.22 352.408 1268.22 350.512 1266.37 350.512C1264.54 350.512 1263.54 352.408 1263.54 355.912ZM1280.53 364.216C1277.03 364.216 1274.56 362.152 1274.53 359.224H1277.77C1277.87 360.688 1278.93 361.576 1280.58 361.576C1282.31 361.576 1283.32 360.712 1283.32 359.272C1283.32 357.856 1282.14 357.016 1280.15 357.016H1278.4V354.376H1279.96C1281.59 354.376 1282.57 353.56 1282.57 352.24C1282.57 350.968 1281.73 350.176 1280.34 350.176C1278.97 350.176 1278.11 351.04 1278.09 352.456H1274.85C1274.87 349.648 1277.32 347.536 1280.51 347.536C1283.92 347.536 1286.01 349.384 1286.01 352C1286.01 353.488 1285.14 354.664 1283.58 355.48C1285.6 356.128 1286.75 357.424 1286.75 359.176C1286.75 362.176 1284.25 364.216 1280.53 364.216Z" fill="#1C2B31" fill-opacity="0.2"/>
<rect y="410" width="1320" height="95" rx="8" fill="#C4D2D8"/>
<path d="M37.424 467H33.776V449.768H44.912V452.936H37.424V457.28H43.736V460.424H37.424V467ZM50.4886 467H47.1286V449.768H50.4886V467ZM59.0482 467.216C55.2082 467.216 52.6402 464.552 52.6402 460.544C52.6402 456.728 55.3042 453.944 59.0002 453.944C63.0562 453.944 65.7442 457.232 65.1442 461.408H56.0482C56.2642 463.496 57.2722 464.648 58.9762 464.648C60.4402 464.648 61.4242 463.928 61.8082 462.656H65.1202C64.4002 465.56 62.1682 467.216 59.0482 467.216ZM58.9282 456.392C57.3682 456.392 56.3842 457.4 56.0962 459.296H61.6162C61.5202 457.52 60.5122 456.392 58.9282 456.392ZM69.2658 467H65.5458L69.8658 460.472L65.8338 454.184H69.6738L72.2898 458.6L74.9298 454.184H78.4338L74.4498 460.592L78.7458 467H74.9538L72.0738 462.392L69.2658 467ZM84.3676 451.208C84.3676 452.336 83.4556 453.176 82.1356 453.176C80.8396 453.176 79.9276 452.336 79.9276 451.208C79.9276 450.032 80.8396 449.192 82.1356 449.192C83.4556 449.192 84.3676 450.032 84.3676 451.208ZM83.8396 467H80.5036V454.184H83.8396V467ZM99.6003 460.592C99.6003 464.336 97.3683 467.24 93.9123 467.24C92.2563 467.24 90.8643 466.496 89.8803 465.152V467H86.8083V449.768H90.1443V455.84C91.0803 454.592 92.3763 453.944 93.9123 453.944C97.3683 453.944 99.6003 456.8 99.6003 460.592ZM96.1683 460.592C96.1683 458.144 94.8003 456.896 93.1683 456.896C91.5603 456.896 90.1683 458.12 90.1683 460.544C90.1683 462.968 91.5123 464.264 93.1683 464.264C94.8003 464.264 96.1683 462.992 96.1683 460.592ZM105.098 467H101.738V449.768H105.098V467ZM113.658 467.216C109.818 467.216 107.25 464.552 107.25 460.544C107.25 456.728 109.914 453.944 113.61 453.944C117.666 453.944 120.354 457.232 119.754 461.408H110.658C110.874 463.496 111.882 464.648 113.586 464.648C115.05 464.648 116.034 463.928 116.418 462.656H119.73C119.01 465.56 116.778 467.216 113.658 467.216ZM113.538 456.392C111.978 456.392 110.994 457.4 110.706 459.296H116.226C116.13 457.52 115.122 456.392 113.538 456.392ZM130.94 467H127.292V449.768H130.94V467ZM137.512 460.016V467H134.176V454.184H137.248V456.008C138.184 454.736 139.504 453.944 141.184 453.944C143.752 453.944 145.528 455.624 145.528 458.72V467H142.216V459.848C142.216 457.952 141.472 456.896 139.96 456.896C138.64 456.896 137.512 457.952 137.512 460.016ZM159.477 454.184L154.773 467H151.125L146.397 454.184H149.997L153.045 463.208L156.117 454.184H159.477ZM166.064 467.216C162.224 467.216 159.656 464.552 159.656 460.544C159.656 456.728 162.32 453.944 166.016 453.944C170.072 453.944 172.76 457.232 172.16 461.408H163.064C163.28 463.496 164.288 464.648 165.992 464.648C167.456 464.648 168.44 463.928 168.824 462.656H172.136C171.416 465.56 169.184 467.216 166.064 467.216ZM165.944 456.392C164.384 456.392 163.4 457.4 163.112 459.296H168.632C168.536 457.52 167.528 456.392 165.944 456.392ZM185.218 462.896C185.218 465.584 183.178 467.24 179.53 467.24C175.882 467.24 173.842 465.488 173.578 462.632H176.77C176.794 463.952 177.922 464.792 179.578 464.792C180.874 464.792 181.858 464.384 181.858 463.472C181.858 462.656 181.33 462.32 180.106 462.08L177.802 461.648C175.498 461.24 174.106 459.968 174.106 457.976C174.106 455.6 176.146 453.944 179.338 453.944C182.554 453.944 184.762 455.648 185.002 458.408H181.81C181.69 457.16 180.754 456.392 179.338 456.392C178.114 456.392 177.298 456.848 177.298 457.664C177.298 458.432 177.826 458.744 178.978 458.96L181.45 459.416C183.946 459.896 185.218 461.048 185.218 462.896ZM195.206 463.76V466.664C194.39 467.072 193.622 467.24 192.638 467.24C189.998 467.24 188.342 465.728 188.342 462.848V457.04H185.75V454.184H188.342V450.392H191.654V454.184H195.326V457.04H191.654V462.08C191.654 463.568 192.326 464.168 193.526 464.168C194.15 464.168 194.726 464.024 195.206 463.76ZM200.699 467H197.363V454.184H200.435V456.008C201.371 454.712 202.571 453.944 204.275 453.944C206.027 453.944 207.371 454.76 208.019 456.224C209.027 454.808 210.323 453.944 212.243 453.944C214.835 453.944 216.587 455.648 216.587 458.72V467H213.275V459.776C213.275 457.976 212.507 456.896 211.043 456.896C209.723 456.896 208.643 457.928 208.643 459.848V467H205.331V459.776C205.331 457.976 204.563 456.896 203.099 456.896C201.755 456.896 200.699 457.928 200.699 459.848V467ZM225.009 467.216C221.169 467.216 218.601 464.552 218.601 460.544C218.601 456.728 221.265 453.944 224.961 453.944C229.017 453.944 231.705 457.232 231.105 461.408H222.009C222.225 463.496 223.233 464.648 224.937 464.648C226.401 464.648 227.385 463.928 227.769 462.656H231.081C230.361 465.56 228.129 467.216 225.009 467.216ZM224.889 456.392C223.329 456.392 222.345 457.4 222.057 459.296H227.577C227.481 457.52 226.473 456.392 224.889 456.392ZM236.676 460.016V467H233.34V454.184H236.412V456.008C237.348 454.736 238.668 453.944 240.348 453.944C242.916 453.944 244.692 455.624 244.692 458.72V467H241.38V459.848C241.38 457.952 240.636 456.896 239.124 456.896C237.804 456.896 236.676 457.952 236.676 460.016ZM255.44 463.76V466.664C254.624 467.072 253.856 467.24 252.872 467.24C250.232 467.24 248.576 465.728 248.576 462.848V457.04H245.984V454.184H248.576V450.392H251.888V454.184H255.56V457.04H251.888V462.08C251.888 463.568 252.56 464.168 253.76 464.168C254.384 464.168 254.96 464.024 255.44 463.76ZM270.701 467.36C265.733 467.36 261.893 463.52 261.893 458.36C261.893 453.2 265.733 449.408 270.701 449.408C275.693 449.408 279.557 453.2 279.557 458.36C279.557 463.52 275.693 467.36 270.701 467.36ZM270.701 464.096C273.869 464.096 275.789 461.528 275.789 458.36C275.789 455.192 273.869 452.672 270.701 452.672C267.557 452.672 265.637 455.192 265.637 458.36C265.637 461.528 267.557 464.096 270.701 464.096ZM294.577 460.592C294.577 464.384 292.345 467.24 288.889 467.24C287.377 467.24 286.081 466.592 285.121 465.344V471.632H281.785V454.184H284.857V456.056C285.841 454.688 287.257 453.944 288.889 453.944C292.345 453.944 294.577 456.824 294.577 460.592ZM291.145 460.592C291.145 458.192 289.777 456.896 288.145 456.896C286.513 456.896 285.145 458.168 285.145 460.592C285.145 463.016 286.513 464.264 288.145 464.264C289.777 464.264 291.145 463.04 291.145 460.592ZM304.542 463.76V466.664C303.726 467.072 302.958 467.24 301.974 467.24C299.334 467.24 297.678 465.728 297.678 462.848V457.04H295.086V454.184H297.678V450.392H300.99V454.184H304.662V457.04H300.99V462.08C300.99 463.568 301.662 464.168 302.862 464.168C303.486 464.168 304.062 464.024 304.542 463.76ZM310.563 451.208C310.563 452.336 309.651 453.176 308.331 453.176C307.035 453.176 306.123 452.336 306.123 451.208C306.123 450.032 307.035 449.192 308.331 449.192C309.651 449.192 310.563 450.032 310.563 451.208ZM310.035 467H306.699V454.184H310.035V467ZM318.668 467.24C314.948 467.24 312.164 464.312 312.164 460.592C312.164 456.848 314.948 453.944 318.668 453.944C322.388 453.944 325.172 456.848 325.172 460.592C325.172 464.312 322.388 467.24 318.668 467.24ZM318.668 464.288C320.324 464.288 321.74 462.968 321.74 460.592C321.74 458.216 320.324 456.92 318.668 456.92C317.012 456.92 315.596 458.216 315.596 460.592C315.596 462.968 317.012 464.288 318.668 464.288ZM330.637 460.016V467H327.301V454.184H330.373V456.008C331.309 454.736 332.629 453.944 334.309 453.944C336.877 453.944 338.653 455.624 338.653 458.72V467H335.341V459.848C335.341 457.952 334.597 456.896 333.085 456.896C331.765 456.896 330.637 457.952 330.637 460.016ZM352.351 462.896C352.351 465.584 350.311 467.24 346.663 467.24C343.015 467.24 340.975 465.488 340.711 462.632H343.903C343.927 463.952 345.055 464.792 346.711 464.792C348.007 464.792 348.991 464.384 348.991 463.472C348.991 462.656 348.463 462.32 347.239 462.08L344.935 461.648C342.631 461.24 341.239 459.968 341.239 457.976C341.239 455.6 343.279 453.944 346.471 453.944C349.687 453.944 351.895 455.648 352.135 458.408H348.943C348.823 457.16 347.887 456.392 346.471 456.392C345.247 456.392 344.431 456.848 344.431 457.664C344.431 458.432 344.959 458.744 346.111 458.96L348.583 459.416C351.079 459.896 352.351 461.048 352.351 462.896Z" fill="#1C2B31"/>
<path d="M1259.1 458.912C1259.1 453.536 1261.36 450.536 1265.37 450.536C1269.38 450.536 1271.66 453.536 1271.66 458.912C1271.66 464.264 1269.42 467.24 1265.37 467.24C1261.31 467.24 1259.1 464.264 1259.1 458.912ZM1262.54 458.912C1262.54 462.392 1263.5 464.264 1265.37 464.264C1267.22 464.264 1268.22 462.392 1268.22 458.912C1268.22 455.408 1267.22 453.512 1265.37 453.512C1263.54 453.512 1262.54 455.408 1262.54 458.912ZM1286.4 463.808H1284.12V467H1280.81V463.808H1273.1V461.336L1281.48 450.776H1284.12V460.904H1286.4V463.808ZM1276.75 460.904H1280.81V455.552L1276.75 460.904Z" fill="#1C2B31" fill-opacity="0.2"/>
</svg>
