<svg width="113" height="30" viewBox="0 0 113 30" fill="none" xmlns="http://www.w3.org/2000/svg">
<rect x="0.5" y="0.5" width="112" height="29" rx="14.5" stroke="#2C2B2B" stroke-opacity="0.1"/>
<mask id="mask0_257_1215" style="mask-type:alpha" maskUnits="userSpaceOnUse" x="12" y="7" width="16" height="16">
<rect x="12" y="7" width="16" height="16" fill="#D9D9D9"/>
</mask>
<g mask="url(#mask0_257_1215)">
<path d="M19.9998 14.9999C20.3665 14.9999 20.6804 14.8694 20.9415 14.6083C21.2026 14.3471 21.3332 14.0333 21.3332 13.6666C21.3332 13.2999 21.2026 12.986 20.9415 12.7249C20.6804 12.4638 20.3665 12.3333 19.9998 12.3333C19.6332 12.3333 19.3193 12.4638 19.0582 12.7249C18.7971 12.986 18.6665 13.2999 18.6665 13.6666C18.6665 14.0333 18.7971 14.3471 19.0582 14.6083C19.3193 14.8694 19.6332 14.9999 19.9998 14.9999ZM19.9998 21.6666C18.2109 20.1444 16.8748 18.7305 15.9915 17.4249C15.1082 16.1194 14.6665 14.911 14.6665 13.7999C14.6665 12.1333 15.2026 10.8055 16.2748 9.81659C17.3471 8.8277 18.5887 8.33325 19.9998 8.33325C21.4109 8.33325 22.6526 8.8277 23.7248 9.81659C24.7971 10.8055 25.3332 12.1333 25.3332 13.7999C25.3332 14.911 24.8915 16.1194 24.0082 17.4249C23.1248 18.7305 21.7887 20.1444 19.9998 21.6666Z" fill="#507B8B"/>
</g>
<path d="M42.208 21H35.248V9.512H37.008V19.416H42.208V21ZM48.9435 21V19.688C48.4155 20.632 47.4715 21.16 46.2235 21.16C44.4635 21.16 43.3115 20.152 43.3115 18.6C43.3115 16.936 44.6395 16.072 47.1675 16.072C47.6635 16.072 48.0635 16.088 48.7515 16.168V15.544C48.7515 14.328 48.0955 13.64 46.9755 13.64C45.7915 13.64 45.0715 14.344 45.0235 15.528H43.5515C43.6315 13.624 44.9915 12.36 46.9755 12.36C49.0715 12.36 50.2875 13.544 50.2875 15.56V21H48.9435ZM44.8475 18.552C44.8475 19.432 45.5035 20.008 46.5435 20.008C47.9035 20.008 48.7515 19.16 48.7515 17.864V17.176C48.1275 17.096 47.6795 17.08 47.2635 17.08C45.6475 17.08 44.8475 17.56 44.8475 18.552ZM54.0641 21H52.4481V12.52H53.9521V13.928C54.5281 12.952 55.4401 12.36 56.6081 12.36C57.8561 12.36 58.8001 13 59.1841 14.12C59.7761 13.032 60.7521 12.36 62.0481 12.36C63.7921 12.36 64.9121 13.496 64.9121 15.512V21H63.2961V16.024C63.2961 14.616 62.6721 13.784 61.4881 13.784C60.3841 13.784 59.4881 14.712 59.4881 16.136V21H57.8721V16.024C57.8721 14.616 57.2481 13.784 56.0641 13.784C54.9441 13.784 54.0641 14.712 54.0641 16.136V21ZM75.1691 16.76C75.1691 19.304 73.6971 21.16 71.4091 21.16C70.2091 21.16 69.1851 20.552 68.5771 19.48V21H67.0731V9.512H68.6891V13.976C69.2811 12.936 70.2571 12.36 71.4091 12.36C73.6811 12.36 75.1691 14.184 75.1691 16.76ZM73.4891 16.76C73.4891 14.84 72.4811 13.784 71.0891 13.784C69.7451 13.784 68.6891 14.824 68.6891 16.728C68.6891 18.6 69.7131 19.72 71.0891 19.72C72.4811 19.72 73.4891 18.648 73.4891 16.76ZM80.2955 21.16C77.8475 21.16 76.1995 19.384 76.1995 16.712C76.1995 14.2 77.9115 12.36 80.2475 12.36C82.7755 12.36 84.4555 14.408 84.1675 17.16H77.8475C77.9755 18.888 78.8395 19.896 80.2635 19.896C81.4635 19.896 82.2955 19.24 82.5675 18.136H84.1675C83.7515 20.024 82.2955 21.16 80.2955 21.16ZM80.2155 13.576C78.9195 13.576 78.0395 14.504 77.8635 16.088H82.4555C82.3755 14.52 81.5275 13.576 80.2155 13.576ZM90.6384 19.432V20.856C90.1424 21.08 89.7104 21.16 89.1984 21.16C87.6304 21.16 86.5424 20.312 86.5424 18.44V13.896H84.6704V12.52H86.5424V10.008H88.1584V12.52H90.7184V13.896H88.1584V18.072C88.1584 19.24 88.7184 19.656 89.5824 19.656C89.9664 19.656 90.3024 19.592 90.6384 19.432ZM93.8766 16.216V21H92.2606V9.512H93.8766V13.88C94.4366 12.968 95.3006 12.36 96.4686 12.36C98.2126 12.36 99.3646 13.48 99.3646 15.512V21H97.7486V16.056C97.7486 14.6 97.1086 13.784 95.9086 13.784C94.8046 13.784 93.8766 14.712 93.8766 16.216Z" fill="#1C2B31"/>
</svg>
