<svg width="40" height="39" viewBox="0 0 40 39" fill="none" xmlns="http://www.w3.org/2000/svg">
<rect opacity="0.25" x="1" y="0.5" width="38" height="38" rx="19" stroke="white"/>
<path fill-rule="evenodd" clip-rule="evenodd" d="M16.5 26H13.5V17H16.5V26Z" fill="white"/>
<path fill-rule="evenodd" clip-rule="evenodd" d="M14.9911 15H14.974C14.0788 15 13.5 14.333 13.5 13.4995C13.5 12.6483 14.0964 12 15.0087 12C15.9209 12 16.4827 12.6483 16.5 13.4995C16.5 14.333 15.9209 15 14.9911 15Z" fill="white"/>
<path fill-rule="evenodd" clip-rule="evenodd" d="M27.4999 25.9998H24.5519V21.2954C24.5519 20.1137 24.1253 19.3074 23.0581 19.3074C22.2437 19.3074 21.7586 19.851 21.5455 20.376C21.4675 20.5641 21.4484 20.8263 21.4484 21.0891V26H18.5C18.5 26 18.5389 18.0318 18.5 17.2067H21.4484V18.4522C21.8397 17.8535 22.5405 17 24.1057 17C26.0456 17 27.5 18.2571 27.5 20.958L27.4999 25.9998Z" fill="white"/>
</svg>
