<svg width="52" height="53" viewBox="0 0 52 53" fill="none" xmlns="http://www.w3.org/2000/svg">
<mask id="mask0_441_1029" style="mask-type:alpha" maskUnits="userSpaceOnUse" x="0" y="0" width="52" height="53">
<rect y="0.267578" width="52" height="52" fill="#D9D9D9"/>
</mask>
<g mask="url(#mask0_441_1029)">
<path d="M25.9993 26.2677C27.191 26.2677 28.2112 25.8434 29.0598 24.9948C29.9084 24.1462 30.3327 23.1261 30.3327 21.9344C30.3327 20.7427 29.9084 19.7226 29.0598 18.874C28.2112 18.0254 27.191 17.6011 25.9993 17.6011C24.8077 17.6011 23.7875 18.0254 22.9389 18.874C22.0903 19.7226 21.666 20.7427 21.666 21.9344C21.666 23.1261 22.0903 24.1462 22.9389 24.9948C23.7875 25.8434 24.8077 26.2677 25.9993 26.2677ZM25.9993 47.9344C20.1855 42.9872 15.8431 38.392 12.9723 34.149C10.1014 29.9059 8.66602 25.9788 8.66602 22.3677C8.66602 16.9511 10.4084 12.6358 13.8931 9.42191C17.3778 6.20802 21.4132 4.60107 25.9993 4.60107C30.5855 4.60107 34.6209 6.20802 38.1056 9.42191C41.5903 12.6358 43.3327 16.9511 43.3327 22.3677C43.3327 25.9788 41.8973 29.9059 39.0264 34.149C36.1556 38.392 31.8132 42.9872 25.9993 47.9344Z" fill="#507B8B"/>
</g>
</svg>
