<svg width="61" height="23" viewBox="0 0 61 23" fill="none" xmlns="http://www.w3.org/2000/svg">
<path d="M19.35 15.45C19.35 19.89 15.81 22.8 10.2 22.8C4.59 22.8 0.99 19.83 0.6 15.06H6.33C6.39 17.1 7.74 18.39 10.08 18.39C12.03 18.39 13.32 17.64 13.32 16.29C13.32 15.36 12.39 14.67 11.13 14.43L7.2 13.68C3.75 13.02 1.47 11.01 1.47 7.53C1.47 3.51 5.01 0.689998 9.84 0.689998C14.97 0.689998 18.66 3.63 18.99 8.28H13.26C13.11 6.33 11.79 5.07 9.9 5.07C8.22 5.07 7.2 5.97 7.2 7.14C7.2 8.1 8.16 8.67 9.3 8.88L13.47 9.69C17.31 10.44 19.35 12.33 19.35 15.45ZM32.1286 14.4V22.5H26.4586V14.4L18.9286 0.959998H25.0486L29.4886 9.21L34.0186 0.959998H39.7186L32.1286 14.4ZM49.8466 22.95C43.7266 22.95 38.8966 18.03 38.8966 11.7C38.8966 5.4 43.7266 0.509999 49.8466 0.509999C55.7566 0.509999 60.3166 4.44 61.0066 10.14H55.0066C54.5566 7.44 52.5466 5.58 49.9066 5.58C46.7266 5.58 44.7166 8.04 44.7166 11.7C44.7166 15.39 46.7266 17.88 49.9066 17.88C52.5166 17.88 54.5266 16.02 55.0066 13.29H61.0066C60.2866 19.05 55.7566 22.95 49.8466 22.95Z" fill="#1C2B31"/>
</svg>
