<svg width="1156" height="713" viewBox="0 0 1156 713" fill="none" xmlns="http://www.w3.org/2000/svg">
<path d="M207.084 132.719L207.917 146.568L211.251 151.492L210.001 165.494L210.696 174.265L205 177.958C205 177.958 209.029 181.036 209.029 187.191C209.029 193.345 207.917 199.501 207.917 199.501C207.917 199.501 215.695 203.194 220.14 220.428C224.586 237.661 226.253 248.587 226.253 248.587L229.031 252.433L230.003 259.972L227.92 267.205H223.474L221.252 273.359L218.89 280.901L215.835 288.131C215.835 288.131 218.613 294.288 218.613 305.367C218.613 316.446 219.725 328.601 219.725 328.601C219.725 328.601 227.088 341.527 225.698 348.451C222.481 364.486 218.058 368.301 218.058 368.301L214.725 373.379L209.586 388.612L214.586 402.615L222.366 405.078L235.701 416.157L253.62 416.618L267.37 426.927L259.035 429.697L257.647 434.622L257.785 453.702L259.035 462.934L266.953 462.781L274.871 468.782L275.704 475.245L283.483 476.475L287.929 470.32L293.485 469.089L295.707 475.245L302.374 477.706L306.82 485.092L317.933 486.324C317.933 486.324 323.488 487.554 324.6 492.478C325.712 497.403 330.156 507.25 330.156 507.25C340.157 510.943 339.741 506.327 339.741 506.327C339.741 506.327 343.213 502.172 347.658 502.172C352.104 502.172 353.631 504.48 358.076 505.712C362.522 506.944 365.716 513.405 365.716 513.405L382.384 534.333L392.386 536.794L402.387 554.028L403.499 567.57L397.943 571.263L392.387 583.572L393.499 588.496L381.693 609.116L384.61 615.579C384.61 615.579 383.221 619.658 383.221 629.581C383.221 639.737 385.026 641.583 385.026 641.583L381.831 646.969C381.831 646.969 385.86 650.354 391.415 646.661C396.971 642.968 406.287 635.717 407.946 631.581C408.501 630.196 410.725 612.809 410.725 612.809L419.197 604.191L421.281 594.651L423.92 587.265C423.92 587.265 431.282 576.187 436.838 571.263C442.394 566.338 446.839 563.877 446.839 563.877L450.173 557.721H456.841L464.62 555.259L463.786 577.264L473.509 576.186L482.399 584.803L492.4 613.116C492.4 613.116 481.287 622.963 481.287 627.888C481.287 632.812 487.259 638.66 487.259 638.66C487.259 638.66 487.538 638.66 491.843 638.967C494.482 639.157 496.844 640.198 496.844 640.198L497.956 629.119L511.291 616.809C511.291 616.809 521.292 618.038 526.848 624.195C532.404 630.351 535.737 638.967 535.737 638.967L541.293 640.198L549.072 650.046L546.85 656.202L549.072 663.588L550.184 669.742L552.406 674.667L550.184 684.514L560.185 689.439L569.492 688.361L582.688 710.827L590.468 711.135L589.079 704.211L592.275 700.671C592.275 700.671 596.537 700.743 601.997 695.747C605.193 692.824 607.136 689.745 607.136 689.745L613.664 687.284L616.859 674.667L622.415 670.974C622.415 670.974 619.913 661.433 625.47 655.279C631.028 649.124 637.972 653.739 637.972 653.739L645.751 652.509L650.752 648.046L654.919 640.507L650.057 632.966L653.947 628.811L659.086 629.119L661.308 621.733L677.977 620.502L685.756 634.044L687.978 629.119L699.091 627.888L703.537 635.274L707.009 656.202L713.538 657.432L706.871 667.281L719.094 704.211L724.65 685.746C724.65 685.746 726.872 674.667 731.317 673.435C735.763 672.204 742.43 682.053 742.43 682.053L743.264 686.822L750.21 687.284L755.627 701.748C755.627 701.748 779.103 696.823 783.547 694.362C787.991 691.9 789.103 685.746 789.103 685.746L784.657 682.053L783.407 673.435L783.547 665.588L783.269 655.279L792.437 647.584L798.271 638.352L819.107 629.119L813.968 610.963C813.968 610.963 814.801 604.191 819.245 604.191C823.689 604.191 831.33 604.5 831.33 604.5L843.972 579.725L845.499 570.031L849.111 561.414C849.111 561.414 844.25 544.025 846.472 539.102C848.694 534.18 854.666 529.408 854.666 529.408L847.999 504.789L850.916 497.709L841.331 490.017L844.665 459.241L854.666 458.01C854.666 458.01 854.39 456.165 855.5 450.009C856.61 443.852 863.557 433.39 863.557 433.39L873.142 432.775L881.06 420.156L887.311 419.541L893.561 405.078L902.451 398.922L900.506 390.612L897.033 387.381L908.007 366.916L899.117 365.684L900.229 345.99C900.229 345.99 913.841 342.143 917.174 337.219C920.508 332.294 922.732 330.139 922.732 330.139L905.785 331.218C905.785 331.218 912.452 324.138 919.12 324.138C925.787 324.138 926.482 320.292 926.482 320.292L922.037 304.135L926.204 302.442L925.787 296.749L931.343 286.902C931.343 286.902 935.788 299.212 939.122 305.367C942.456 311.521 944.678 302.903 944.678 302.903L947.595 298.442L946.901 280.745L974.682 273.359L979.127 269.666L1014.13 262.897L1001.35 244.124L994.684 235.2C994.684 235.2 989.13 211.81 986.907 205.656C984.683 199.501 981.349 194.577 981.349 194.577L972.043 194.423L964.68 185.961L960.653 188.731L945.79 183.499L955.791 171.189C955.791 171.189 944.263 163.188 939.817 163.188C935.372 163.188 933.288 160.108 933.288 160.108L935.788 156.415L932.455 144.104L931.343 137.95L928.009 132.564L920.37 131.794L914.674 123.176L919.12 112.097L906.896 104.711C906.896 104.711 905.506 112.097 898.839 115.79C892.171 119.483 883.56 123.176 883.56 123.176C883.56 123.176 869.668 121.944 863.834 123.638C858.044 125.318 853.556 130.562 853.556 130.562L816.885 128.101L806.467 140.565L797.992 141.641L789.658 147.027L785.769 148.259L782.435 143.643L779.102 147.797L781.324 156.415L773.546 161.646L765.628 157.8L759.099 161.34L752.293 161.186L745.209 157.647L737.985 150.261L731.317 147.799C731.317 147.799 726.873 144.106 722.428 136.72C717.982 129.334 711.315 122.101 711.315 122.101L714.232 112.716L709.093 103.022L692.146 103.636L677.144 93.1723L674.367 103.02L663.532 102.25L665.616 97.3251L674.505 88.5542L674.643 71.474L671.033 68.3959L672.977 48.3946L675.2 35.9308L637.972 32.0845L629.083 34.5459L614.636 25.9282L584.632 24.6966L570.185 16.079L562.546 17.9255L543.515 18.5404L531.292 5L531.57 34.6991L519.207 55.4723L502.538 68.8594L498.232 62.3966C498.232 62.3966 483.786 74.0905 481.564 79.0152C479.342 83.9398 476.285 87.4777 476.285 87.4777C476.285 87.4777 460.588 56.8572 460.588 48.2395C460.588 39.6219 451.281 67.7829 449.058 73.9373C446.834 80.0917 448.224 91.3258 446.002 98.7118C443.781 106.098 440.723 106.868 440.723 106.868L430.307 101.943C430.307 101.943 422.389 104.713 413.5 107.174C404.611 109.636 394.528 101.349 386.83 109.329C371.69 125.024 344.324 137.642 344.324 137.642L334.185 147.489L304.319 160.568L262.092 148.257L261.814 155.181L252.368 163.644L234.587 148.41L225.698 145.336L218.475 132.872L207.084 132.719Z" fill="#EFF3F5" stroke="white" stroke-width="3.51205"/>
<path d="M78.8436 141.218L92.105 164.824L131.886 251.149L113.891 259.242L100.63 266.661L103.471 274.079L62.7436 280.148C62.7436 280.148 63.6898 286.894 76.005 291.614C88.3201 296.334 121.469 297.01 124.311 299.033C127.152 301.056 126.206 311.846 126.206 311.846L110.103 324.66L108.208 338.148L103.471 342.195L94.0004 344.892L80.7389 357.031L76.9512 377.264L69.3729 393.45L58.0068 392.776C58.0068 392.776 59.9021 404.917 57.0605 412.335C54.219 419.752 51.3775 431.891 42.8529 435.264C34.3283 438.637 26.75 434.926 26.75 434.926" stroke="white" stroke-width="1.75602"/>
<path d="M256.912 83.8953L243.65 103.454L302.643 157.936L339.313 191.801L334.576 199.22L343.101 207.313L344.047 219.452L356.359 216.755H367.725L440.659 283.522L436.871 290.266L430.242 296.335C430.242 296.335 425.505 292.289 421.717 291.615C417.929 290.941 410.351 290.939 407.509 292.289C404.668 293.638 401.826 300.382 401.826 300.382L368.674 291.615L349.73 292.965L346.888 289.592L333.633 286.219L290.064 302.405C290.064 302.405 285.327 301.734 284.381 299.035C283.434 296.336 295.747 287.571 292.905 284.872C290.064 282.173 285.327 281.501 282.485 282.849C279.644 284.196 261.648 293.638 261.648 293.638L252.178 289.592L256.914 284.196L257.861 280.15L243.653 270.709V266.663L237.021 263.964L234.179 257.22L200.081 249.801V241.708L212.393 233.615V229.569L208.606 224.848L216.184 219.452L212.396 204.616L218.079 203.266L251.231 187.754C251.231 187.754 256.914 189.777 265.439 190.451C273.964 191.125 283.434 193.824 283.434 193.824C283.434 193.824 284.381 185.731 281.539 183.034C278.698 180.337 274.91 178.988 274.91 178.988L304.271 158.755" stroke="white" stroke-width="1.75602"/>
<path d="M131.882 251.149H149.877L176.4 243.73L200.078 249.8" stroke="white" stroke-width="1.75602"/>
<path d="M80.7344 357.031C80.7344 357.031 98.7297 363.103 103.467 363.777C108.203 364.451 123.357 357.707 123.357 357.707C123.357 357.707 143.248 370.52 147.036 372.544C150.823 374.567 182.08 363.101 186.817 360.404C191.554 357.707 198.183 363.777 198.183 363.777L211.444 359.73L216.181 361.08L222.811 359.057H227.547L236.072 361.754L242.701 367.823L250.28 361.754H259.75L270.17 360.404L263.541 354.334L269.224 348.94L288.168 348.265L296.693 345.568C296.693 345.568 308.059 357.033 313.742 359.73C319.425 362.427 328.896 359.73 328.896 359.73L337.421 359.057L344.999 350.288L342.157 344.894L350.682 340.172L346.894 324.662L344.999 315.893L353.523 305.103L354.47 297.01L344.999 295.66L349.736 292.964" stroke="white" stroke-width="1.75602"/>
<path d="M112.943 500.008L127.151 497.311L125.256 492.591L124.309 485.845L142.305 478.428L147.988 477.079L148.934 468.986L153.671 466.289L147.988 460.893L135.676 459.543L122.414 456.846L121.468 448.08H129.992L143.254 433.241L175.457 431.218L185.877 435.264L196.297 432.567L207.663 434.591L217.134 433.917L240.812 427.171C240.812 427.171 235.129 424.477 232.287 419.754C229.446 415.032 229.446 409.638 230.392 407.615C231.338 405.592 240.809 402.893 248.387 398.172C255.966 393.452 261.649 387.382 266.383 383.336C271.117 379.289 267.329 379.289 276.803 377.266C286.276 375.243 286.273 373.22 291.957 375.917C297.64 378.614 298.586 379.963 302.376 384.01C306.167 388.056 302.376 392.103 308.059 396.149C313.742 400.196 311.847 403.566 317.53 404.916C323.213 406.265 326.055 407.613 331.738 404.916C337.421 402.219 346.892 400.869 345.945 396.823C344.999 392.776 345.945 386.033 346.892 384.01C347.838 381.986 353.521 373.894 353.521 373.894L358.258 371.87L359.204 367.15L352.575 355.011L348.787 353.661L344.999 350.288" stroke="white" stroke-width="1.75602"/>
<path d="M236.074 554.636C236.074 554.636 248.387 547.219 250.282 543.172C252.177 539.126 254.07 509.451 254.07 509.451L257.857 502.707C257.857 502.707 259.753 496.638 255.016 493.265C250.279 489.892 241.754 486.521 241.754 486.521L246.491 479.102L254.07 476.405L263.54 477.079L273.96 483.149L282.485 485.172L291.009 479.776L305.217 485.172L341.211 464.94L343.106 456.847L349.735 446.73L339.315 441.334L334.578 435.265L343.103 424.475L339.315 421.778L344.052 411.662L362.997 413.685L373.416 415.032L380.046 401.545L397.095 404.916C397.095 404.916 389.516 400.194 387.624 394.8C385.732 389.406 384.782 377.94 384.782 377.94C384.782 377.94 384.782 371.195 380.046 370.521C375.309 369.847 365.838 369.173 365.838 369.173L358.26 371.87" stroke="white" stroke-width="1.75602"/>
<path d="M362.995 575.542L384.781 562.729L385.727 558.682L376.256 558.009L361.103 542.497L358.261 537.103L361.103 522.264L356.366 518.893L359.207 512.148L357.312 506.078L346.895 491.916L342.158 485.846L343.104 475.056L341.212 464.94" stroke="white" stroke-width="1.75602"/>
<path d="M344.053 476.405L390.463 460.219L415.091 464.939L443.506 459.543L450.135 465.613L449.189 473.706L456.767 475.055L464.346 483.822L465.292 487.869L489.919 495.961L503.181 493.265L530.65 500.684L534.438 491.915L532.542 467.636L523.072 459.543V437.963L518.335 435.264L512.652 421.102L509.81 410.312L510.756 407.615C510.756 407.615 522.122 406.939 526.859 402.892C531.596 398.846 542.013 390.079 541.067 375.917C540.121 361.754 517.388 373.895 511.705 375.243C506.022 376.59 469.083 382.66 465.295 386.707C461.507 390.753 466.241 400.198 462.453 405.591C458.666 410.985 448.246 413.682 438.775 415.032C429.304 416.381 418.884 414.356 414.147 413.009C409.411 411.661 397.098 404.916 397.098 404.916" stroke="white" stroke-width="1.75602"/>
<path d="M381.935 295.66C381.935 295.66 381.935 307.802 385.722 312.522C389.51 317.242 394.247 317.24 398.035 319.939C401.822 322.638 404.664 329.384 405.613 332.754C406.562 336.125 401.825 342.195 401.825 342.195L400.879 346.917C400.879 346.917 403.721 353.658 413.191 360.404C422.662 367.149 441.607 373.893 441.607 373.893C441.607 373.893 447.29 384.009 450.131 386.032C452.973 388.056 464.339 390.079 464.339 390.079" stroke="white" stroke-width="1.75602"/>
<path d="M401.83 300.381C401.83 300.381 402.779 299.707 409.408 301.73C416.038 303.753 416.984 306.452 418.879 308.475C420.775 310.499 425.508 317.916 425.508 317.916L434.979 323.986L439.716 327.358L448.241 331.405C448.241 331.405 451.082 337.475 452.028 339.498C452.975 341.521 461.499 346.917 461.499 346.917L464.341 352.987H476.653L486.124 348.94L497.49 344.218L502.227 350.288L508.856 365.126L507.91 376.59" stroke="white" stroke-width="1.75602"/>
<path d="M440.666 283.522L455.82 277.452L470.027 275.429L481.394 276.778L490.864 280.825L504.126 278.128L510.755 285.545V297.011L517.384 302.407H530.646L533.487 308.476L541.066 312.523L542.961 320.616L560.01 319.94L570.43 317.917L574.218 325.336L568.535 329.383C568.535 329.383 563.798 326.686 560.956 332.755C558.115 338.825 555.273 345.568 555.273 345.568L554.327 353.661L552.432 365.127L541.066 375.917" stroke="white" stroke-width="1.75602"/>
<path d="M506.969 679.4L518.335 680.75L522.122 679.4L525.91 676.703L523.069 671.983L522.122 669.284L523.069 663.89L525.91 658.494L523.069 655.122V651.751L525.91 645.005L529.698 644.332L531.593 638.262L536.33 636.239C536.33 636.239 538.225 634.213 545.801 634.889C553.376 635.565 559.062 637.588 562.85 637.588C566.638 637.588 571.374 634.889 571.374 634.889C571.374 634.889 571.375 622.752 570.428 617.356C569.482 611.96 568.533 603.865 566.641 600.494C564.748 597.123 553.379 573.516 553.379 570.145C553.379 566.775 553.379 562.053 553.379 562.053L540.118 549.913L533.489 552.612L529.701 554.635V559.356L513.598 560.705C513.598 560.705 509.81 553.96 506.019 553.96C502.229 553.96 497.495 556.659 497.495 556.659C497.495 556.659 493.707 557.334 488.97 556.659C484.233 555.983 484.233 551.936 478.55 551.263C472.867 550.589 468.131 556.659 468.131 556.659H459.606L454.869 561.379L446.345 559.356L441.608 561.379L432.137 558.682L423.612 558.006L404.668 572.844L384.777 562.728" stroke="white" stroke-width="1.75602"/>
<path d="M762.704 655.122C762.704 655.122 767.438 638.936 759.863 632.193C752.287 625.449 739.975 620.055 732.397 613.31C724.818 606.564 724.821 601.168 721.03 592.402C717.24 583.635 715.347 568.123 715.347 568.123L694.508 556.659L685.037 555.983L680.3 550.589L674.617 543.844H667.042L656.622 533.728L642.414 522.264L632.943 510.124L625.365 508.101L622.523 495.962L613.999 494.612C613.999 494.612 604.525 491.24 597.896 491.24C591.267 491.24 576.113 491.915 576.113 491.915L563.798 503.379L554.327 512.148C554.327 512.148 549.59 518.889 549.59 523.611C549.59 528.334 555.273 533.728 555.273 533.728L562.851 541.147L552.431 543.844L540.119 549.913" stroke="white" stroke-width="1.75602"/>
<path d="M530.647 500.684L524.012 506.078L521.171 512.821H534.432H547.691L554.323 512.148" stroke="white" stroke-width="1.75602"/>
<path d="M1016.54 520.24C1016.54 520.24 984.343 502.031 976.765 502.031C969.186 502.031 962.557 503.379 962.557 503.379C962.557 503.379 956.874 506.753 952.137 506.078C947.4 505.402 925.614 502.029 921.827 499.332C918.039 496.635 898.151 479.1 894.361 476.403C890.57 473.706 882.045 471.683 882.045 471.683L869.733 486.519L857.421 487.193C857.421 487.193 834.686 460.891 828.056 458.867C821.427 456.844 811.007 451.45 811.007 451.45L804.378 444.705L793.012 448.751L794.907 452.798C794.907 452.798 795.851 458.196 799.641 461.566C803.432 464.937 818.586 471.683 818.586 471.683L821.427 481.799L804.378 484.496L799.641 481.123L793.958 485.17L782.592 487.868L760.809 503.379C760.809 503.379 760.809 503.381 752.284 504.054C743.76 504.728 739.023 502.705 739.023 502.705C739.023 502.705 727.66 491.913 721.028 489.216C714.396 486.519 705.871 483.146 700.188 483.146C694.505 483.146 685.037 485.17 678.405 487.193C671.773 489.216 663.248 487.193 657.565 486.519C651.882 485.845 634.833 483.146 634.833 483.146L629.15 487.193L622.521 495.961" stroke="white" stroke-width="1.75602"/>
<path d="M1102.74 362.429C1102.74 362.429 1094.22 365.126 1084.75 367.149C1075.27 369.173 1081.91 369.175 1065.8 366.476C1049.7 363.777 1047.81 362.429 1045.91 357.033C1044.02 351.637 1044.97 342.87 1036.44 334.777C1027.92 326.684 1027.92 323.987 1019.39 323.987C1010.87 323.987 1008.97 323.312 997.606 321.289C986.24 319.265 983.398 316.57 974.874 313.871C966.349 311.172 972.03 307.126 958.771 310.499C945.512 313.871 941.722 317.918 935.093 318.592C928.463 319.265 919.939 317.918 917.097 317.918C914.256 317.918 908.573 315.895 900.048 320.615C891.524 325.335 892.467 328.708 887.733 332.754C882.999 336.801 882.05 338.826 876.367 342.197C870.684 345.567 858.374 347.591 851.742 346.917C845.11 346.243 832.801 345.567 823.327 345.567C813.853 345.567 807.221 347.591 799.646 347.591C792.07 347.591 781.65 344.22 781.65 344.22C781.65 344.22 771.233 343.544 766.496 339.498C761.76 335.451 757.972 332.752 753.235 333.428C748.498 334.104 741.866 336.127 742.815 338.824C743.764 341.521 745.66 344.218 746.606 347.591C747.552 350.963 749.447 357.709 749.447 360.406C749.447 363.103 744.708 365.8 742.815 367.823C740.923 369.846 735.24 372.545 729.557 372.545C723.874 372.545 719.137 369.848 716.295 368.499C713.454 367.149 710.612 366.476 707.771 362.429C704.929 358.383 701.141 355.686 702.088 352.313C703.034 348.94 702.091 347.591 701.141 342.87C700.192 338.15 702.088 336.127 696.405 332.754C690.722 329.381 684.092 327.358 678.409 329.381C672.726 331.405 670.834 334.104 664.202 336.801C657.57 339.498 649.045 341.523 645.257 340.173C641.469 338.824 631.996 334.775 622.525 333.428C613.054 332.08 593.164 328.708 593.164 328.708L574.219 325.337C574.219 325.337 575.168 328.032 576.114 331.405C577.061 334.777 578.01 337.474 578.956 339.498C579.902 341.521 574.219 344.894 574.219 346.917C574.219 348.94 569.482 350.29 570.431 352.313C571.38 354.336 578.01 359.056 578.01 359.056C578.01 359.056 588.427 359.054 586.534 363.777C584.642 368.499 579.905 371.87 579.905 371.87C579.905 371.87 583.693 378.615 585.588 380.638C587.483 382.661 587.483 386.032 588.43 388.055C589.376 390.079 593.166 397.498 593.166 397.498L599.796 401.544L605.479 406.94L606.425 413.684L600.742 420.427L597.9 424.474C597.9 424.474 587.483 434.59 587.483 436.613C587.483 438.636 596.954 445.382 596.954 445.382L609.266 466.962L611.162 476.404L615.899 480.451L622.528 495.287" stroke="white" stroke-width="1.75602"/>
<path d="M952.141 311.848L954.036 358.382L956.878 369.846L960.665 377.939L953.087 379.962H948.353L944.562 382.661L934.145 380.638L929.408 384.009C929.408 384.009 894.364 396.148 892.469 399.521C890.573 402.893 887.732 407.614 887.732 407.614L893.415 417.056C893.415 417.056 899.101 429.196 900.047 431.893C900.993 434.59 905.73 438.636 902.889 444.032C900.047 449.428 892.469 457.521 892.469 457.521L882.049 471.684" stroke="white" stroke-width="1.75602"/>
<path d="M710.606 365.799L707.765 369.172L700.187 369.846L707.765 373.892L710.606 378.614L717.236 382.661L719.131 388.73L718.185 394.124L724.814 400.87L732.392 396.148L753.229 397.497L768.383 398.171L773.12 404.916L771.225 413.683L770.278 422.45L783.54 427.172C783.54 427.172 790.169 429.193 790.169 432.566C790.169 435.939 788.274 444.032 788.274 444.032L793.011 448.752" stroke="white" stroke-width="1.75602"/>
<path d="M703.028 357.032C703.028 357.032 695.45 355.684 691.662 358.381C687.874 361.078 682.191 363.101 682.191 363.101L676.508 362.428L670.825 366.474L665.142 369.171C665.142 369.171 658.51 373.218 660.405 375.241C662.3 377.264 665.139 381.309 666.088 384.008C667.037 386.707 667.983 396.823 667.983 396.823L666.088 406.263C666.088 406.263 675.562 409.634 678.403 412.333C681.245 415.032 680.296 420.426 680.296 420.426L682.191 427.845L681.245 435.938C681.245 435.938 680.299 438.635 675.562 438.635C670.825 438.635 660.405 439.311 660.405 439.311L653.776 448.751L651.88 464.937L638.622 475.053L637.673 483.146" stroke="white" stroke-width="1.75602"/>
<path d="M972.032 107.5C972.032 107.5 994.767 134.477 993.818 137.174C992.869 139.871 991.923 157.407 991.923 157.407C991.923 157.407 989.081 169.546 989.081 171.57C989.081 173.593 980.557 184.383 980.557 184.383L983.398 191.126L990.977 195.846L993.818 210.009L999.501 214.731C999.501 214.731 1013.71 224.172 1016.55 225.521C1019.39 226.871 1047.81 215.405 1051.59 215.405C1055.38 215.405 1050.65 220.127 1052.54 224.848C1054.44 229.568 1056.33 236.311 1056.33 236.311L1060.12 239.684C1060.12 239.684 1045.91 251.823 1045.91 253.847C1045.91 255.87 1044.02 262.613 1044.02 262.613L1039.28 265.986L1034.55 272.73C1034.55 272.73 1014.65 290.941 1012.76 293.638C1010.87 296.335 1008.97 323.311 1008.97 323.311" stroke="white" stroke-width="1.75602"/>
<path d="M990.975 152.685L986.238 156.731H982.45L957.823 166.173C957.823 166.173 959.718 172.243 962.56 176.963C965.401 181.684 966.347 186.406 966.347 186.406L963.506 193.825L957.823 199.221V204.617L961.611 208.664L957.823 212.71L956.877 216.081L950.245 224.174L952.14 230.243L955.928 237.663C955.928 237.663 955.928 240.362 952.14 243.059C948.352 245.756 925.62 244.406 925.62 244.406C925.62 244.406 909.514 253.175 904.78 255.872C900.046 258.569 900.046 258.569 900.046 258.569C900.046 258.569 905.729 249.128 900.992 249.128C896.256 249.128 885.839 255.87 880.156 258.569C874.473 261.268 862.157 259.916 862.157 259.916C862.157 259.916 863.104 242.381 859.316 239.684C855.528 236.987 846.057 236.311 846.057 236.311L834.691 228.218L827.113 229.568L818.588 227.544L810.064 228.218L811.01 237.661L784.49 239.01C784.49 239.01 767.441 246.427 764.599 247.777C761.758 249.126 748.496 247.777 748.496 247.777L729.555 246.427L719.135 247.777L721.03 262.613L708.715 260.59L695.457 267.336C695.457 267.336 692.615 272.729 685.037 276.776C677.458 280.822 663.251 281.498 663.251 281.498L643.36 280.822L638.626 284.869C638.626 284.869 631.048 285.545 628.206 287.568C625.365 289.591 624.419 294.311 624.419 294.311C624.419 294.311 629.152 297.684 629.152 300.381C629.152 303.078 620.628 307.8 620.628 307.8C620.628 307.8 628.209 319.264 630.102 323.31C631.994 327.357 619.682 332.079 619.682 332.079" stroke="white" stroke-width="1.75602"/>
<path d="M862.155 259.917C862.155 259.917 865.943 269.358 867.838 274.754C869.734 280.15 869.731 284.196 876.363 288.243C882.995 292.289 900.044 293.639 900.044 293.639L902.886 297.685L905.727 304.429L909.515 309.825L917.093 317.918" stroke="white" stroke-width="1.75602"/>
<path d="M721.03 262.613C721.03 262.613 719.137 270.03 721.03 272.729C722.922 275.428 727.659 278.799 727.659 278.799C727.659 278.799 722.925 284.195 723.871 286.218C724.817 288.241 738.079 292.961 738.079 292.961L741.866 307.8L751.337 311.171L758.916 317.916L765.545 320.613L766.494 329.38L763.652 336.799" stroke="white" stroke-width="1.75602"/>
<path d="M783.538 100.925L772.174 109.524L757.967 120.313L759.859 123.686C759.859 123.686 766.488 123.686 771.225 125.036C775.962 126.385 776.911 127.059 777.857 130.432C778.804 133.804 775.016 139.874 775.016 139.874C775.016 139.874 770.279 149.317 770.279 151.34C770.279 153.363 768.387 171.572 769.333 176.292C770.279 181.013 779.75 196.525 779.75 201.245C779.75 205.965 777.857 233.617 777.857 233.617L784.487 239.013" stroke="white" stroke-width="1.75602"/>
<path d="M702.084 79.1724L703.98 83.8946L699.243 86.5916L703.03 98.731L707.767 104.801L703.98 110.87C703.98 110.87 702.081 113.567 700.189 116.94C698.296 120.313 682.193 129.753 682.193 129.753L685.035 132.45L684.089 137.171L687.877 146.613L692.613 145.939L685.981 152.009L669.881 162.125V168.869L660.408 172.915C660.408 172.915 665.142 180.334 660.408 184.381C655.674 188.427 643.358 194.497 643.358 196.52C643.358 198.543 645.254 203.264 645.254 203.264C645.254 203.264 647.149 207.984 649.991 209.333C652.832 210.683 660.408 216.077 660.408 216.077C660.408 216.077 667.986 219.45 667.986 221.473C667.986 223.496 673.669 230.24 673.669 230.24C673.669 230.24 676.508 231.591 683.14 230.915C689.772 230.24 699.243 229.566 699.243 229.566L707.767 234.962L719.133 247.775" stroke="white" stroke-width="1.75602"/>
<path d="M453.927 30.6161L449.19 34.6626L448.244 40.0585C448.244 40.0585 491.813 42.7555 492.762 44.7788C493.711 46.802 495.604 52.198 497.499 56.2445C499.394 60.2909 505.077 69.7334 505.077 69.7334C505.077 69.7334 512.656 83.2223 516.444 87.2688C520.231 91.3153 534.439 99.4083 534.439 99.4083L530.651 110.198L525.914 118.291C525.914 118.291 513.602 127.734 514.548 130.431C515.494 133.128 521.177 141.221 521.177 141.221L532.544 139.197L542.014 141.894L547.697 143.918L559.064 147.29C559.064 147.29 641.468 148.638 644.309 147.964C647.151 147.29 653.78 145.267 659.463 145.267C665.146 145.267 674.617 146.617 674.617 146.617L685.037 150.663" stroke="white" stroke-width="1.75602"/>
<path d="M521.173 141.218L518.331 144.591V149.987L511.702 154.707L506.965 149.987L501.282 149.313L492.757 154.709C492.757 154.709 488.97 157.406 490.862 162.802C492.755 168.198 492.757 174.942 493.704 176.965C494.65 178.988 497.491 186.407 497.491 186.407L501.279 190.454L496.542 194.5L488.964 191.128L484.227 193.151L481.386 200.57L472.861 210.011L474.756 216.08L465.286 218.104L458.659 215.405L450.135 224.171L438.768 229.567L435.927 234.963L430.244 241.707L424.561 247.776L416.982 247.103H411.299L407.512 251.823" stroke="white" stroke-width="1.75602"/>
<path d="M474.765 216.078C474.765 216.078 475.711 213.379 483.289 214.055C490.868 214.731 500.338 214.055 500.338 214.055L513.6 216.078L525.912 221.474L547.698 212.032L561.906 206.638L564.747 209.335L573.272 218.777L578.955 225.521L590.321 216.078L588.426 210.684L587.479 205.288C587.479 205.288 606.421 204.614 609.263 204.614C612.104 204.614 645.256 203.265 645.256 203.265" stroke="white" stroke-width="1.75602"/>
<path d="M525.91 221.474C525.91 221.474 523.069 235.639 524.964 239.01C526.86 242.381 535.384 249.8 535.384 249.8L544.855 257.219L549.592 266.66L553.379 274.752L557.167 283.521L556.221 288.241L564.746 290.938L568.533 297.008V303.078L578.953 305.777L577.058 310.497L573.27 313.194L570.429 317.916" stroke="white" stroke-width="1.75602"/>
<path d="M578.949 225.522L587.474 231.592L599.786 232.265L602.628 243.057C602.628 243.057 603.574 246.43 606.415 247.104C609.257 247.778 615.889 249.127 615.889 249.127L619.677 253.847L613.047 259.243L611.152 276.777L605.469 280.823C605.469 280.823 590.315 282.848 591.261 285.545C592.208 288.242 596.945 290.266 596.945 290.266L609.257 295.662L613.047 298.359V303.755L612.098 307.125L620.623 307.801" stroke="white" stroke-width="1.75602"/>
<path d="M613.05 303.754L602.63 306.451L595.052 305.101L587.477 307.8L581.794 310.497H577.057" stroke="white" stroke-width="1.75602"/>
</svg>
