<svg width="182" height="30" viewBox="0 0 182 30" fill="none" xmlns="http://www.w3.org/2000/svg">
<rect x="0.5" y="0.5" width="181" height="29" rx="14.5" stroke="#2C2B2B" stroke-opacity="0.1"/>
<mask id="mask0_257_1205" style="mask-type:alpha" maskUnits="userSpaceOnUse" x="12" y="7" width="16" height="16">
<rect x="12" y="7" width="16" height="16" fill="#D9D9D9"/>
</mask>
<g mask="url(#mask0_257_1205)">
<path d="M19.9998 14.9999C20.3665 14.9999 20.6804 14.8694 20.9415 14.6083C21.2026 14.3471 21.3332 14.0333 21.3332 13.6666C21.3332 13.2999 21.2026 12.986 20.9415 12.7249C20.6804 12.4638 20.3665 12.3333 19.9998 12.3333C19.6332 12.3333 19.3193 12.4638 19.0582 12.7249C18.7971 12.986 18.6665 13.2999 18.6665 13.6666C18.6665 14.0333 18.7971 14.3471 19.0582 14.6083C19.3193 14.8694 19.6332 14.9999 19.9998 14.9999ZM19.9998 21.6666C18.2109 20.1444 16.8748 18.7305 15.9915 17.4249C15.1082 16.1194 14.6665 14.911 14.6665 13.7999C14.6665 12.1333 15.2026 10.8055 16.2748 9.81659C17.3471 8.8277 18.5887 8.33325 19.9998 8.33325C21.4109 8.33325 22.6526 8.8277 23.7248 9.81659C24.7971 10.8055 25.3332 12.1333 25.3332 13.7999C25.3332 14.911 24.8915 16.1194 24.0082 17.4249C23.1248 18.7305 21.7887 20.1444 19.9998 21.6666Z" fill="#507B8B"/>
</g>
<path d="M37.008 21H35.248V9.512H37.008V14.824L41.872 9.512H43.904L38.784 15.144L44.032 21H41.824L37.008 15.672V21ZM48.0768 21.16C45.6288 21.16 43.9808 19.384 43.9808 16.712C43.9808 14.2 45.6928 12.36 48.0288 12.36C50.5568 12.36 52.2368 14.408 51.9488 17.16H45.6288C45.7568 18.888 46.6208 19.896 48.0448 19.896C49.2448 19.896 50.0768 19.24 50.3488 18.136H51.9488C51.5328 20.024 50.0768 21.16 48.0768 21.16ZM47.9968 13.576C46.7008 13.576 45.8207 14.504 45.6448 16.088H50.2368C50.1568 14.52 49.3088 13.576 47.9968 13.576ZM55.2829 16.216V21H53.6669V12.52H55.1709V13.928C55.7469 12.984 56.7069 12.36 57.8749 12.36C59.6189 12.36 60.7709 13.48 60.7709 15.512V21H59.1549V16.056C59.1549 14.6 58.5149 13.784 57.3149 13.784C56.2109 13.784 55.2829 14.712 55.2829 16.216ZM69.6369 18.472C69.6369 20.136 68.3409 21.16 66.0849 21.16C63.8449 21.16 62.5169 20.056 62.3569 18.232H63.9089C63.9729 19.288 64.8209 19.944 66.1169 19.944C67.2529 19.944 68.0049 19.544 68.0049 18.744C68.0049 18.04 67.5729 17.736 66.5169 17.528L65.1409 17.272C63.5729 16.968 62.6929 16.168 62.6929 14.888C62.6929 13.4 63.9889 12.36 65.9569 12.36C67.9889 12.36 69.3649 13.448 69.5089 15.192H67.9569C67.8609 14.168 67.1089 13.576 65.9729 13.576C64.9489 13.576 64.2609 14.008 64.2609 14.744C64.2609 15.432 64.6929 15.752 65.7169 15.944L67.1569 16.216C68.8369 16.52 69.6369 17.256 69.6369 18.472ZM73.3693 10.552C73.3693 11.16 72.8893 11.624 72.2013 11.624C71.5133 11.624 71.0173 11.16 71.0173 10.552C71.0173 9.928 71.5133 9.48 72.2013 9.48C72.8893 9.48 73.3693 9.928 73.3693 10.552ZM73.0173 21H71.4013V12.52H73.0173V21ZM76.8766 16.216V21H75.2606V12.52H76.7646V13.928C77.3406 12.984 78.3006 12.36 79.4686 12.36C81.2126 12.36 82.3646 13.48 82.3646 15.512V21H80.7486V16.056C80.7486 14.6 80.1086 13.784 78.9086 13.784C77.8046 13.784 76.8766 14.712 76.8766 16.216ZM87.9026 24.264C85.6786 24.264 84.2386 23.08 84.1426 21.16H85.7106C85.8066 22.344 86.5746 22.984 87.8866 22.984C89.3426 22.984 90.1106 22.2 90.1106 20.744V19.208C89.6306 20.232 88.6706 20.824 87.5186 20.824C85.4066 20.824 83.9026 19.08 83.9026 16.584C83.9026 14.056 85.3426 12.36 87.4706 12.36C88.6866 12.36 89.6466 12.952 90.2226 14.024V12.52H91.7266V20.712C91.7266 22.936 90.3026 24.264 87.9026 24.264ZM85.5346 16.584C85.5346 18.344 86.3986 19.416 87.8066 19.416C89.1826 19.416 90.1106 18.312 90.1106 16.632C90.1106 14.872 89.1986 13.752 87.8066 13.752C86.4146 13.752 85.5346 14.84 85.5346 16.584ZM98.7478 19.432V20.856C98.2518 21.08 97.8198 21.16 97.3078 21.16C95.7398 21.16 94.6518 20.312 94.6518 18.44V13.896H92.7797V12.52H94.6518V10.008H96.2678V12.52H98.8278V13.896H96.2678V18.072C96.2678 19.24 96.8278 19.656 97.6918 19.656C98.0758 19.656 98.4118 19.592 98.7478 19.432ZM103.688 21.16C101.288 21.16 99.5276 19.272 99.5276 16.76C99.5276 14.248 101.288 12.36 103.688 12.36C106.088 12.36 107.848 14.248 107.848 16.76C107.848 19.272 106.088 21.16 103.688 21.16ZM103.688 19.736C105.08 19.736 106.184 18.616 106.184 16.76C106.184 14.904 105.08 13.8 103.688 13.8C102.296 13.8 101.208 14.904 101.208 16.76C101.208 18.616 102.296 19.736 103.688 19.736ZM111.111 16.216V21H109.495V12.52H110.999V13.928C111.575 12.984 112.535 12.36 113.703 12.36C115.447 12.36 116.599 13.48 116.599 15.512V21H114.983V16.056C114.983 14.6 114.343 13.784 113.143 13.784C112.039 13.784 111.111 14.712 111.111 16.216ZM126.201 17H123.977V21H122.217V9.512H126.201C128.777 9.512 130.441 10.824 130.441 13.224C130.441 15.64 128.777 17 126.201 17ZM126.185 11H123.977V15.512H126.185C127.737 15.512 128.681 14.664 128.681 13.24C128.681 11.816 127.737 11 126.185 11ZM137.053 21V19.688C136.525 20.632 135.581 21.16 134.333 21.16C132.573 21.16 131.421 20.152 131.421 18.6C131.421 16.936 132.749 16.072 135.277 16.072C135.773 16.072 136.173 16.088 136.861 16.168V15.544C136.861 14.328 136.205 13.64 135.085 13.64C133.901 13.64 133.181 14.344 133.133 15.528H131.661C131.741 13.624 133.101 12.36 135.085 12.36C137.181 12.36 138.397 13.544 138.397 15.56V21H137.053ZM132.957 18.552C132.957 19.432 133.613 20.008 134.653 20.008C136.013 20.008 136.861 19.16 136.861 17.864V17.176C136.237 17.096 135.789 17.08 135.373 17.08C133.757 17.08 132.957 17.56 132.957 18.552ZM142.19 21H140.558V9.512H142.19V21ZM149.569 21V19.688C149.041 20.632 148.097 21.16 146.849 21.16C145.089 21.16 143.937 20.152 143.937 18.6C143.937 16.936 145.265 16.072 147.793 16.072C148.289 16.072 148.689 16.088 149.377 16.168V15.544C149.377 14.328 148.721 13.64 147.601 13.64C146.417 13.64 145.697 14.344 145.649 15.528H144.177C144.257 13.624 145.617 12.36 147.601 12.36C149.697 12.36 150.913 13.544 150.913 15.56V21H149.569ZM145.473 18.552C145.473 19.432 146.129 20.008 147.169 20.008C148.529 20.008 149.377 19.16 149.377 17.864V17.176C148.753 17.096 148.305 17.08 147.889 17.08C146.273 17.08 145.473 17.56 145.473 18.552ZM156.417 21.176C154.097 21.176 152.465 19.352 152.465 16.76C152.465 14.2 154.129 12.36 156.417 12.36C158.513 12.36 160.033 13.752 160.337 15.96H158.641C158.465 14.6 157.617 13.784 156.433 13.784C155.041 13.784 154.129 14.968 154.129 16.76C154.129 18.568 155.041 19.736 156.433 19.736C157.633 19.736 158.465 18.936 158.657 17.56H160.337C160.049 19.8 158.545 21.176 156.417 21.176ZM165.374 21.16C162.926 21.16 161.278 19.384 161.278 16.712C161.278 14.2 162.99 12.36 165.326 12.36C167.854 12.36 169.534 14.408 169.246 17.16H162.926C163.054 18.888 163.918 19.896 165.342 19.896C166.542 19.896 167.374 19.24 167.646 18.136H169.246C168.83 20.024 167.374 21.16 165.374 21.16ZM165.294 13.576C163.998 13.576 163.118 14.504 162.942 16.088H167.534C167.454 14.52 166.606 13.576 165.294 13.576Z" fill="#1C2B31"/>
</svg>
