<svg width="122" height="30" viewBox="0 0 122 30" fill="none" xmlns="http://www.w3.org/2000/svg">
<rect x="0.5" y="0.5" width="121" height="29" rx="14.5" stroke="#2C2B2B" stroke-opacity="0.1"/>
<mask id="mask0_257_1210" style="mask-type:alpha" maskUnits="userSpaceOnUse" x="12" y="7" width="16" height="16">
<rect x="12" y="7" width="16" height="16" fill="#D9D9D9"/>
</mask>
<g mask="url(#mask0_257_1210)">
<path d="M19.9998 14.9999C20.3665 14.9999 20.6804 14.8694 20.9415 14.6083C21.2026 14.3471 21.3332 14.0333 21.3332 13.6666C21.3332 13.2999 21.2026 12.986 20.9415 12.7249C20.6804 12.4638 20.3665 12.3333 19.9998 12.3333C19.6332 12.3333 19.3193 12.4638 19.0582 12.7249C18.7971 12.986 18.6665 13.2999 18.6665 13.6666C18.6665 14.0333 18.7971 14.3471 19.0582 14.6083C19.3193 14.8694 19.6332 14.9999 19.9998 14.9999ZM19.9998 21.6666C18.2109 20.1444 16.8748 18.7305 15.9915 17.4249C15.1082 16.1194 14.6665 14.911 14.6665 13.7999C14.6665 12.1333 15.2026 10.8055 16.2748 9.81659C17.3471 8.8277 18.5887 8.33325 19.9998 8.33325C21.4109 8.33325 22.6526 8.8277 23.7248 9.81659C24.7971 10.8055 25.3332 12.1333 25.3332 13.7999C25.3332 14.911 24.8915 16.1194 24.0082 17.4249C23.1248 18.7305 21.7887 20.1444 19.9998 21.6666Z" fill="#507B8B"/>
</g>
<path d="M37.008 21H35.248V9.512H37.008V14.312H42.832V9.512H44.592V21H42.832V15.848H37.008V21ZM54.0038 12.52L49.7638 24.088H48.0038L49.2198 20.888L45.8758 12.52H47.6198L50.0838 18.984L52.3718 12.52H54.0038ZM54.3089 16.76C54.3089 14.184 55.7809 12.36 58.0689 12.36C59.2049 12.36 60.1969 12.936 60.7889 13.976V9.512H62.4049V21H60.9009V19.48C60.2929 20.552 59.2689 21.16 58.0689 21.16C55.7809 21.16 54.3089 19.304 54.3089 16.76ZM55.9889 16.76C55.9889 18.648 56.9809 19.72 58.3889 19.72C59.7649 19.72 60.7889 18.6 60.7889 16.728C60.7889 14.824 59.7329 13.784 58.3889 13.784C56.9809 13.784 55.9889 14.84 55.9889 16.76ZM68.1393 21.16C65.6913 21.16 64.0433 19.384 64.0433 16.712C64.0433 14.2 65.7553 12.36 68.0913 12.36C70.6193 12.36 72.2993 14.408 72.0113 17.16H65.6913C65.8193 18.888 66.6833 19.896 68.1073 19.896C69.3073 19.896 70.1393 19.24 70.4113 18.136H72.0113C71.5953 20.024 70.1393 21.16 68.1393 21.16ZM68.0593 13.576C66.7633 13.576 65.8832 14.504 65.7073 16.088H70.2993C70.2193 14.52 69.3713 13.576 68.0593 13.576ZM81.1851 17H78.9611V21H77.2011V9.512H81.1851C83.7611 9.512 85.4251 10.824 85.4251 13.224C85.4251 15.64 83.7611 17 81.1851 17ZM81.1691 11H78.9611V15.512H81.1691C82.7211 15.512 83.6651 14.664 83.6651 13.24C83.6651 11.816 82.7211 11 81.1691 11ZM92.0373 21V19.688C91.5093 20.632 90.5653 21.16 89.3173 21.16C87.5573 21.16 86.4053 20.152 86.4053 18.6C86.4053 16.936 87.7333 16.072 90.2613 16.072C90.7573 16.072 91.1573 16.088 91.8453 16.168V15.544C91.8453 14.328 91.1893 13.64 90.0693 13.64C88.8853 13.64 88.1653 14.344 88.1173 15.528H86.6453C86.7253 13.624 88.0853 12.36 90.0693 12.36C92.1653 12.36 93.3813 13.544 93.3813 15.56V21H92.0373ZM87.9413 18.552C87.9413 19.432 88.5973 20.008 89.6373 20.008C90.9973 20.008 91.8453 19.16 91.8453 17.864V17.176C91.2213 17.096 90.7733 17.08 90.3573 17.08C88.7413 17.08 87.9413 17.56 87.9413 18.552ZM97.1579 16.664V21H95.5419V12.52H97.0459V14.312C97.6379 13.144 98.9179 12.408 100.31 12.408V14.088C98.4859 13.992 97.1579 14.792 97.1579 16.664ZM103.205 21H101.589V9.512H103.205V16.312L106.837 12.52H108.741L104.821 16.632L109.109 21H107.029L103.205 16.984V21Z" fill="#1C2B31"/>
</svg>
