<svg width="40" height="39" viewBox="0 0 40 39" fill="none" xmlns="http://www.w3.org/2000/svg">
<rect opacity="0.25" x="1" y="0.5" width="38" height="38" rx="19" stroke="white"/>
<path fill-rule="evenodd" clip-rule="evenodd" d="M19.8122 16.9262L19.8404 17.402L19.3708 17.3437C17.6612 17.1204 16.1677 16.363 14.8996 15.091L14.2796 14.4599L14.12 14.926C13.7818 15.9649 13.9978 17.0621 14.7023 17.8001C15.0781 18.2079 14.9935 18.2661 14.3454 18.0234C14.12 17.9457 13.9227 17.8874 13.9039 17.9166C13.8382 17.9845 14.0636 18.8681 14.2421 19.2177C14.4863 19.7032 14.9841 20.179 15.5289 20.4605L15.9892 20.6839L15.4444 20.6936C14.9184 20.6936 14.8996 20.7033 14.9559 20.9072C15.1438 21.5383 15.8859 22.2083 16.7125 22.4996L17.2949 22.7035L16.7876 23.0142C16.0362 23.4609 15.1532 23.7133 14.2702 23.7328C13.8475 23.7425 13.5 23.7813 13.5 23.8104C13.5 23.9075 14.646 24.4513 15.3129 24.6649C17.3136 25.296 19.6901 25.0242 21.4748 23.9464C22.7429 23.1793 24.011 21.6549 24.6028 20.179C24.9222 19.3925 25.2415 17.9554 25.2415 17.266C25.2415 16.8194 25.2697 16.7611 25.7957 16.2271C26.1057 15.9164 26.3969 15.5765 26.4532 15.4794C26.5472 15.2949 26.5378 15.2949 26.0587 15.46C25.2603 15.7513 25.1476 15.7124 25.5421 15.2755C25.8333 14.9648 26.1808 14.4016 26.1808 14.2366C26.1808 14.2074 26.0399 14.256 25.8803 14.3434C25.7112 14.4405 25.3355 14.5861 25.0537 14.6735L24.5464 14.8386L24.0862 14.5181C23.8325 14.3434 23.4756 14.1492 23.2877 14.0909C22.8087 13.955 22.076 13.9744 21.6439 14.1297C20.4698 14.5667 19.7277 15.693 19.8122 16.9262Z" fill="white"/>
</svg>
