<svg width="195" height="30" viewBox="0 0 195 30" fill="none" xmlns="http://www.w3.org/2000/svg">
<rect x="0.5" y="0.5" width="193.304" height="29" rx="14.5" stroke="#2C2B2B" stroke-opacity="0.1"/>
<circle cx="16" cy="15" r="3" fill="#507B8B"/>
<path d="M39.4004 9.512V16.872C39.4004 19.512 37.7044 21.24 34.9524 21.24C32.2004 21.24 30.5204 19.512 30.5204 16.872V9.512H32.2804V16.92C32.2804 18.584 33.2564 19.656 34.9524 19.656C36.6644 19.656 37.6404 18.584 37.6404 16.92V9.512H39.4004ZM43.3373 16.216V21H41.7213V12.52H43.2253V13.928C43.8013 12.984 44.7613 12.36 45.9293 12.36C47.6733 12.36 48.8253 13.48 48.8253 15.512V21H47.2093V16.056C47.2093 14.6 46.5693 13.784 45.3693 13.784C44.2653 13.784 43.3373 14.712 43.3373 16.216ZM52.9393 10.552C52.9393 11.16 52.4593 11.624 51.7713 11.624C51.0833 11.624 50.5873 11.16 50.5873 10.552C50.5873 9.928 51.0833 9.48 51.7713 9.48C52.4593 9.48 52.9393 9.928 52.9393 10.552ZM52.5873 21H50.9713V12.52H52.5873V21ZM59.6147 19.432V20.856C59.1187 21.08 58.6867 21.16 58.1747 21.16C56.6067 21.16 55.5187 20.312 55.5187 18.44V13.896H53.6467V12.52H55.5187V10.008H57.1347V12.52H59.6947V13.896H57.1347V18.072C57.1347 19.24 57.6947 19.656 58.5587 19.656C58.9427 19.656 59.2787 19.592 59.6147 19.432ZM64.4906 21.16C62.0426 21.16 60.3946 19.384 60.3946 16.712C60.3946 14.2 62.1066 12.36 64.4426 12.36C66.9706 12.36 68.6506 14.408 68.3626 17.16H62.0426C62.1706 18.888 63.0346 19.896 64.4586 19.896C65.6586 19.896 66.4906 19.24 66.7626 18.136H68.3626C67.9466 20.024 66.4906 21.16 64.4906 21.16ZM64.4106 13.576C63.1146 13.576 62.2346 14.504 62.0586 16.088H66.6506C66.5706 14.52 65.7226 13.576 64.4106 13.576ZM69.3164 16.76C69.3164 14.184 70.7884 12.36 73.0764 12.36C74.2124 12.36 75.2044 12.936 75.7964 13.976V9.512H77.4124V21H75.9084V19.48C75.3004 20.552 74.2764 21.16 73.0764 21.16C70.7884 21.16 69.3164 19.304 69.3164 16.76ZM70.9964 16.76C70.9964 18.648 71.9884 19.72 73.3964 19.72C74.7724 19.72 75.7964 18.6 75.7964 16.728C75.7964 14.824 74.7404 13.784 73.3964 13.784C71.9884 13.784 70.9964 14.84 70.9964 16.76ZM84.8906 21H83.1306V9.512H84.8906V14.824L89.7546 9.512H91.7866L86.6666 15.144L91.9146 21H89.7066L84.8906 15.672V21ZM95.3143 10.552C95.3143 11.16 94.8343 11.624 94.1463 11.624C93.4583 11.624 92.9623 11.16 92.9623 10.552C92.9623 9.928 93.4583 9.48 94.1463 9.48C94.8343 9.48 95.3143 9.928 95.3143 10.552ZM94.9623 21H93.3463V12.52H94.9623V21ZM98.8217 16.216V21H97.2057V12.52H98.7097V13.928C99.2857 12.984 100.246 12.36 101.414 12.36C103.158 12.36 104.31 13.48 104.31 15.512V21H102.694V16.056C102.694 14.6 102.054 13.784 100.854 13.784C99.7497 13.784 98.8217 14.712 98.8217 16.216ZM105.848 16.76C105.848 14.184 107.32 12.36 109.608 12.36C110.744 12.36 111.736 12.936 112.328 13.976V9.512H113.944V21H112.44V19.48C111.832 20.552 110.808 21.16 109.608 21.16C107.32 21.16 105.848 19.304 105.848 16.76ZM107.528 16.76C107.528 18.648 108.52 19.72 109.928 19.72C111.304 19.72 112.328 18.6 112.328 16.728C112.328 14.824 111.272 13.784 109.928 13.784C108.52 13.784 107.528 14.84 107.528 16.76ZM119.742 21.16C117.342 21.16 115.582 19.272 115.582 16.76C115.582 14.248 117.342 12.36 119.742 12.36C122.142 12.36 123.902 14.248 123.902 16.76C123.902 19.272 122.142 21.16 119.742 21.16ZM119.742 19.736C121.134 19.736 122.238 18.616 122.238 16.76C122.238 14.904 121.134 13.8 119.742 13.8C118.35 13.8 117.262 14.904 117.262 16.76C117.262 18.616 118.35 19.736 119.742 19.736ZM127.165 21H125.549V12.52H127.053V13.928C127.629 12.952 128.541 12.36 129.709 12.36C130.957 12.36 131.901 13 132.285 14.12C132.877 13.032 133.853 12.36 135.149 12.36C136.893 12.36 138.013 13.496 138.013 15.512V21H136.397V16.024C136.397 14.616 135.773 13.784 134.589 13.784C133.485 13.784 132.589 14.712 132.589 16.136V21H130.973V16.024C130.973 14.616 130.349 13.784 129.165 13.784C128.045 13.784 127.165 14.712 127.165 16.136V21ZM142.366 20.312C142.366 21.832 141.166 23.016 139.406 23.048V22.136C140.446 22.104 141.15 21.544 141.246 20.76C141.102 20.808 141.006 20.824 140.894 20.824C140.286 20.824 139.838 20.328 139.838 19.736C139.838 19.048 140.35 18.6 141.006 18.6C141.886 18.6 142.366 19.24 142.366 20.312ZM154.378 19.56V21H147.386V20.072L150.762 16.424C152.042 15.032 152.538 14.28 152.538 13.304C152.538 12.232 151.786 11.48 150.682 11.48C149.482 11.48 148.682 12.264 148.682 13.464H147.098C147.098 11.464 148.602 10.024 150.746 10.024C152.762 10.024 154.234 11.336 154.234 13.112C154.234 14.344 153.77 15.208 151.994 17.096L149.818 19.56H154.378ZM155.87 15.608C155.87 12.024 157.294 10.024 159.854 10.024C162.414 10.024 163.854 12.024 163.854 15.608C163.854 19.192 162.446 21.16 159.854 21.16C157.262 21.16 155.87 19.192 155.87 15.608ZM157.534 15.608C157.534 18.28 158.334 19.704 159.854 19.704C161.374 19.704 162.19 18.296 162.19 15.608C162.19 12.904 161.374 11.48 159.854 11.48C158.366 11.48 157.534 12.904 157.534 15.608ZM172.457 19.56V21H165.465V20.072L168.841 16.424C170.121 15.032 170.617 14.28 170.617 13.304C170.617 12.232 169.865 11.48 168.761 11.48C167.561 11.48 166.761 12.264 166.761 13.464H165.177C165.177 11.464 166.681 10.024 168.825 10.024C170.841 10.024 172.313 11.336 172.313 13.112C172.313 14.344 171.849 15.208 170.073 17.096L167.897 19.56H172.457ZM181.539 18.616H180.067V21H178.451V18.616H173.251V17.48L178.819 10.184H180.067V17.208H181.539V18.616ZM175.059 17.208H178.451V12.632L175.059 17.208Z" fill="#1C2B31"/>
</svg>
