<svg width="255" height="47" viewBox="0 0 255 47" fill="none" xmlns="http://www.w3.org/2000/svg">
<path d="M265.82 0.565963L288.384 44.7148L-48.2449 75.1274L-49.7745 58.1964L-39.812 51.7739L-27.5938 59.2047L-23.382 55.8119L-15.5494 53.5982L-8.57471 47.4457L9.98522 47.275L17.053 36.5957L20.8056 44.7913L27.7803 38.6388L40.2234 48.5594L45.3412 44.0808L56.7946 43.046L62.9021 49.5227L66.7509 47.6689L72.4985 50.1619L84.6841 35.0039L92.5105 43.8356L97.1303 39.4019L106.724 45.5637L110.935 42.171L118.903 41.4511L126.016 31.2698L133.98 36.0727L138.828 28.6062L149.777 38.6618L154.4 28.7055L162.05 30.0225L168.343 27.4458L181.917 38.7703L184.635 35.5126L188.619 35.1527L191.841 20.8046L208.808 36.3409L213.521 27.3805L221.719 18.1052L233.356 13.5397L234.256 23.4991L240.408 30.4738L247.785 34.3257L259.844 1.10583L265.82 0.565963Z" fill="url(#paint0_linear_575_1509)"/>
<defs>
<linearGradient id="paint0_linear_575_1509" x1="72.1183" y1="29.2547" x2="69.7197" y2="85.8381" gradientUnits="userSpaceOnUse">
<stop stop-color="#BEF0BE"/>
<stop offset="1" stop-color="#F0FBF0"/>
</linearGradient>
</defs>
</svg>
